<svg xmlns="http://www.w3.org/2000/svg" width="170" height="40" viewBox="0 0 170 40" fill="none" ><g clip-path="url(#S)"><path d="M0 7.5C0 3.358 3.648 0 8.148 0h153.704c4.5 0 8.148 3.358 8.148 7.5v25c0 4.142-3.648 7.5-8.148 7.5H8.148C3.648 40 0 36.642 0 32.5v-25z" fill="#fff"/><path d="M12.968 24.025l-4.724 5.762 31.913-1.537 3.514-.11 29.551 1.537-12.673-14.982-42.109 3.512-5.472 5.817z" fill="url(#A)"/><path d="M43.671 28.141l-3.514.11-31.913 1.537v.329l31.913-1.537 3.514-.11 29.436 1.482.058-.274-29.494-1.537z" fill="#a7a9c4"/><path d="M43.671 28.36l-3.514.165-31.913 1.537v.439l31.913-1.537 3.514-.11 29.436 1.427v-.329L43.671 28.36z" fill="#17181d"/><path d="M44.363 27.427c-.518.384-2.131.823-3.687.823-1.44 0-2.707-.439-3.341-.823l-.173.933c0 .604 1.555.933 3.687.933s3.86-.494 3.86-1.098l-.346-.768z" fill="url(#B)"/><path d="M41.022 29.677c-1.959 0-3.687-.659-3.975-.988 0 .055-.173.329-.173.329 0 .165 2.016.933 4.205.933s3.917-.604 4.032-1.098l-.173-.329c-.288.439-2.016 1.152-3.917 1.152z" fill="#17181d"/><g fill="#161f30"><path d="M12.45 27.701l-1.037 1.152s9.102-1.646 24.136-1.537l10.599.165s11.924-.659 24.136 1.427c-.346-1.098-1.498-2.854-1.498-2.854L12.45 27.701z"/><path d="M40.848 28.47c2.036 0 3.687-.467 3.687-1.043s-1.651-1.043-3.687-1.043-3.687.467-3.687 1.043 1.651 1.043 3.687 1.043z"/></g><path d="M20.284 15.189l-8.871 9.439s.346.165.518.604c.173.494.173 3.293.173 3.293s12.039-2.469 28.975-.494c9.562-1.427 18.433-1.098 28.63.165-.173-2.03.346-2.799.346-2.799s0-.494.173-.768c-.864-.768-8.353-8.232-8.353-8.232l-41.591-1.207z" fill="url(#C)"/><path d="M41.021 26.933c-14.344-4.61-29.666-2.25-29.666-2.25s.346.165.518.604.173 3.293.173 3.293 12.039-2.469 28.975-.494c9.562-1.427 18.606-1.098 28.802.165-.173-2.03.346-2.799.346-2.799s0-.494.173-.768c-.864-.768-21.487-2.03-29.321 2.25z" fill="url(#D)"/><path d="M70.169 24.683l-.346-.329c-3.053-.768-21.429-1.591-28.745 2.415-13.537-4.39-27.823-2.524-29.494-2.305l-.058.055.173.165c1.901-.274 16.072-2.03 29.436 2.305 7.604-4.171 27.189-3.073 29.033-2.305z" fill="url(#E)"/><path d="M40.964 27.317c-14.516-4.226-28.572-1.921-28.687-1.866l-.058-.165c.115 0 14.228-2.36 28.802 1.921l-.058.11z" fill="url(#F)"/><path d="M40.964 27.482c-15.726-3.512-28.457-1.043-28.63-1.043v-.11c.115 0 12.903-2.524 28.687 1.043l-.058.11z" fill="url(#G)"/><path d="M40.733 27.866c-16.187-2.963-28.399-.11-28.514-.055l-.058-.11c.115-.055 12.385-2.908 28.572.11v.055z" fill="url(#H)"/><path d="M12.392 27.098h-.058v-.055h.115-.058v-.055c.058 0 .634-.11 1.267-.22l4.205-.604v.11c-1.21.11-2.995.384-4.205.604l-1.267.22z" fill="url(#I)"/><path d="M41.193 27.701l-.058-.165c14.632-5.323 28.745-2.25 28.918-2.195l-.058.165c-.173-.055-14.228-3.128-28.802 2.195z" fill="url(#J)"/><path d="M41.193 27.701l-.058-.11c15.784-4.226 28.572-1.043 28.687-1.043l-.058.11c-.115 0-12.846-3.183-28.572 1.043z" fill="url(#K)"/><path d="M69.765 28.14c-.115-.055-12.154-3.293-28.341-.274v-.11c16.187-3.018 28.284.274 28.399.274l-.058.11z" fill="url(#L)"/><path d="M69.766 27.482c-.058 0-.346-.055-1.21-.22l-5.645-.823v-.11c1.671.11 4.148.549 5.645.823l1.152.22v.055h.058v.055h0z" fill="url(#M)"/><path d="M69.65 27.262c-.058 0-.288-.055-.864-.165l-3.802-.659v-.11l3.802.659c.403.11.806.165.864.165v.055h.058v.055h-.058z" fill="url(#N)"/><path d="M20.917 14.531l-9.159 10.043s17.8-3.183 29.263 2.25V15.957s-8.986-3.512-20.104-1.427z" fill="url(#O)"/><path d="M60.433 13.872l8.525 9.22s-18.088-3.128-27.881 3.512l-.173-10.701c.058 0 4.263-6.091 19.528-2.03z" fill="#8b8b96"/><path d="M59.569 12.774l8.007 9.22s-16.475-3.402-26.441 4.39V15.902s3.168-6.201 18.434-3.128z" fill="url(#P)"/><g fill="#8b8b96"><path d="M56.055 10.415l8.525 9.22s-12.846-1.921-23.387 6.86l-.173-10.701s4.205-6.037 15.035-5.378zM23.048 12.83l-9.159 10.043s14.92-3.732 26.959 3.622V15.628s-7.489-5.872-17.8-2.799z"/></g><path d="M22.415 12.006l-9.159 9.988s17.8-3.183 27.765 4.61V15.793s-7.489-5.872-18.606-3.787z" fill="url(#Q)"/><path d="M55.71 8l7.892 9.878s-12.5.659-22.466 8.451V15.793S44.477 8.933 55.71 8z" fill="url(#R)"/><path d="M40.906 29.293c-1.959 0-3.399-.439-3.744-.878l-.173.329c0 .165 1.67.933 3.859.933s3.917-.713 3.975-1.207l-.115-.22c-.23.384-1.901 1.043-3.802 1.043z" fill="#a7a9c4"/><path d="M41.066 15.839l-.179 12.237.173.002.179-12.237-.173-.002z" fill="#8b8b96"/></g><path d="M80.366 17.429h5.291v-1.738h-3.29V9.095h-2.001v8.333zm7.136-6.679c.625 0 1.113-.464 1.113-1.071 0-.595-.488-1.06-1.113-1.06-.638 0-1.113.464-1.113 1.06 0 .607.475 1.071 1.113 1.071zm-1.001 6.679h2.001v-5.952h-2.001v5.952zm6.022.166c2.026 0 3.315-.988 3.315-3.309 0-1.929-1.013-2.976-2.464-2.976-.675 0-1.238.25-1.614.655V8.5h-1.914V17c.5.25 1.463.595 2.677.595zm.125-1.536c-.425 0-.675-.083-.8-.167v-1.464c0-1.06.45-1.56 1.038-1.56.613 0 .976.536.976 1.512 0 1.024-.35 1.678-1.213 1.678zm6.211-1.773c0-.881.463-1.238 1.001-1.238a1.49 1.49 0 0 1 .525.107l.438-1.75c-.125-.06-.338-.095-.501-.095-.85 0-1.451.417-1.751.976l-.15-.536c-.062-.214-.163-.274-.413-.274h-1.151v5.952h2.001v-3.143zm5.11 3.309c2.063 0 2.939-1.476 2.939-3.143s-.876-3.143-2.939-3.143-2.94 1.476-2.94 3.143.876 3.143 2.94 3.143zm0-1.524c-.588 0-.939-.488-.939-1.619s.351-1.619.939-1.619.938.488.938 1.619-.351 1.619-.938 1.619zm9.518-.023c-.776 0-1.088-.631-1.088-1.619 0-.964.412-1.56 1.075-1.56.501 0 .826.31.938.524v1.679c0 .619-.425.976-.925.976zm1.05.559l.163.822h1.714V8.5H114.5v3.274c-.325-.262-.788-.464-1.413-.464-1.664 0-2.665 1.226-2.665 3.167 0 2.131.963 3.119 2.339 3.119.763 0 1.464-.44 1.776-.988zm5.836-3.774c.525 0 .763.429.8.845h-1.663c.125-.583.438-.845.863-.845zm2.739 4.191l-.45-1.369c-.413.238-.938.429-1.726.429-1.026 0-1.414-.369-1.489-1.286h3.653v-.381c0-1.774-.751-3.107-2.727-3.107-2.064 0-2.939 1.476-2.939 3.143 0 1.702 1.038 3.143 3.314 3.143 1.038 0 1.751-.25 2.364-.571zm-40.288 8.452a3.04 3.04 0 0 1-.701-.083v-2.655h1.088c1.026 0 1.288.691 1.288 1.167 0 .619-.275 1.571-1.676 1.571zm.025 1.691a5.41 5.41 0 0 0 .638-.036l1.376 2.202h2.139l-1.751-2.738c.988-.607 1.413-1.619 1.413-2.702 0-1.488-.926-2.893-3.502-2.893h-3.039v8.333h2.001v-2.25c.25.048.5.083.725.083zm7.635-2.429c.525 0 .763.429.8.845H89.62c.125-.583.438-.845.863-.845zm2.739 4.191l-.45-1.369c-.413.238-.938.429-1.726.429-1.026 0-1.413-.369-1.488-1.286h3.652v-.381c0-1.774-.751-3.107-2.727-3.107-2.064 0-2.939 1.476-2.939 3.143 0 1.702 1.038 3.143 3.315 3.143 1.038 0 1.751-.25 2.364-.571zm4.159.571c.663 0 1.163-.131 1.551-.333l-.363-1.56a2.38 2.38 0 0 1-1.051.25c-.813 0-1.476-.452-1.476-1.5s.663-1.5 1.476-1.5a2.38 2.38 0 0 1 1.051.238l.363-1.548c-.388-.202-.888-.333-1.551-.333-2.114 0-3.315 1.262-3.315 3.143s1.201 3.143 3.315 3.143zm4.618-.071a2.9 2.9 0 0 0 .876-.155l-.188-1.429c-.062.036-.162.048-.3.048-.337 0-.438-.167-.438-.393v-7.095h-1.988v7.214c0 1.202.575 1.81 2.038 1.81zm4.14-1.238c-.538 0-.913-.309-.913-.75 0-.464.4-.738.8-.738.588 0 .963.512.988 1.191-.212.202-.55.298-.875.298zm1.1 1.143h1.551V25.81c0-1.512-.713-2.595-2.852-2.595-.687 0-1.663.167-2.251.488l.388 1.56c.4-.25.913-.488 1.588-.488 1.076 0 1.351.536 1.351 1.25v.083c-.263-.333-.738-.607-1.476-.607-1.276 0-2.264.786-2.264 2.071 0 1.024.751 1.929 2.102 1.929.863 0 1.463-.405 1.713-.845l.15.678zm4.762-3.596c0-.679.438-.976.913-.976.5 0 .901.298.901.976v3.595h2.013v-3.595c0-.679.426-.976.888-.976.488 0 .876.298.876.976v3.595h2.001v-3.857c0-1.286-.588-2.262-2.176-2.262-.863 0-1.539.405-1.926.905-.326-.559-.926-.905-1.877-.905-.863 0-1.538.393-1.926.881l-.125-.44c-.062-.214-.162-.274-.413-.274h-1.15v5.952h2.001v-3.595zm11.36 2.453c-.538 0-.913-.309-.913-.75 0-.464.401-.738.801-.738.588 0 .963.512.988 1.191-.213.202-.55.298-.876.298zm1.101 1.143h1.551V25.81c0-1.512-.713-2.595-2.852-2.595-.688 0-1.663.167-2.251.488l.388 1.56c.4-.25.913-.488 1.588-.488 1.076 0 1.351.536 1.351 1.25v.083c-.263-.333-.738-.607-1.476-.607-1.276 0-2.264.786-2.264 2.071 0 1.024.751 1.929 2.101 1.929.863 0 1.464-.405 1.714-.845l.15.678zm5.825.166c.663 0 1.163-.131 1.551-.333l-.363-1.56a2.38 2.38 0 0 1-1.051.25c-.813 0-1.475-.452-1.475-1.5s.662-1.5 1.475-1.5a2.38 2.38 0 0 1 1.051.238l.363-1.548c-.388-.202-.888-.333-1.551-.333-2.114 0-3.315 1.262-3.315 3.143s1.201 3.143 3.315 3.143zm3.581-6.845c.625 0 1.113-.464 1.113-1.072 0-.595-.488-1.059-1.113-1.059-.638 0-1.113.464-1.113 1.06 0 .607.475 1.072 1.113 1.072zm-1.001 6.679h2.001v-5.952h-2.001v5.952zm6.035.166c2.063 0 2.939-1.476 2.939-3.143s-.876-3.143-2.939-3.143-2.94 1.476-2.94 3.143.876 3.143 2.94 3.143zm0-1.524c-.588 0-.938-.488-.938-1.619s.35-1.619.938-1.619.938.488.938 1.619-.35 1.619-.938 1.619zm5.969-2.238c0-.679.438-.976.913-.976.5 0 .9.298.9.976v3.595h2.002v-3.857c0-1.286-.601-2.262-2.202-2.262-.863 0-1.538.393-1.926.881l-.125-.44c-.063-.214-.163-.274-.413-.274h-1.151v5.952h2.002v-3.595zm7.711-1c.525 0 .763.429.801.845h-1.664c.125-.583.438-.845.863-.845zm2.739 4.191l-.45-1.369c-.413.238-.938.429-1.726.429-1.026 0-1.413-.369-1.488-1.286h3.652v-.381c0-1.774-.751-3.107-2.727-3.107-2.064 0-2.939 1.476-2.939 3.143 0 1.702 1.038 3.143 3.314 3.143a4.81 4.81 0 0 0 2.364-.571zm3.183.559c1.939 0 2.84-.952 2.84-2.071 0-1.024-.788-1.619-2.314-1.822l-.175-.024c-.376-.048-.601-.143-.601-.417 0-.298.288-.405.938-.405.538 0 1.064.143 1.526.286l.376-1.476c-.388-.167-1.026-.333-2.089-.333-1.951 0-2.714 1.167-2.714 2.036 0 1.012.675 1.643 2.288 1.857l.176.024c.387.048.625.143.625.428 0 .262-.263.393-.901.393-.625 0-1.188-.167-1.801-.381l-.488 1.441a5.91 5.91 0 0 0 2.314.464z" fill="#34a5ea"/><defs><linearGradient id="A" x1="8.244" y1="22.248" x2="73.247" y2="22.248" href="#T"><stop stop-color="#404761"/><stop offset=".039" stop-color="#4f5673"/><stop offset=".102" stop-color="#626989"/><stop offset=".17" stop-color="#6f7699"/><stop offset=".248" stop-color="#777ea2"/><stop offset=".357" stop-color="#7980a5"/><stop offset=".408" stop-color="#6d7596"/><stop offset=".504" stop-color="#4f5870"/><stop offset=".539" stop-color="#434c61"/><stop offset="1" stop-color="#8189a8"/></linearGradient><linearGradient id="B" x1="37.153" y1="28.377" x2="44.673" y2="28.377" href="#T"><stop stop-color="#404761"/><stop offset=".11" stop-color="#4f5673"/><stop offset=".285" stop-color="#626989"/><stop offset=".476" stop-color="#6f7699"/><stop offset=".694" stop-color="#777ea2"/><stop offset="1" stop-color="#7980a5"/></linearGradient><linearGradient id="C" x1="11.42" y1="21.85" x2="70.24" y2="21.85" href="#T"><stop stop-color="#f1f0f9"/><stop offset=".086" stop-color="#f8f8fa"/><stop offset=".217" stop-color="#fbfbfb"/><stop offset=".315" stop-color="#edecef"/><stop offset=".503" stop-color="#c7c6cf"/><stop offset=".505" stop-color="#c7c6cf"/><stop offset=".768" stop-color="#f9fafc"/><stop offset=".907" stop-color="#f7f7fa"/><stop offset=".995" stop-color="#f0eff4"/><stop offset="1" stop-color="#efeef3"/></linearGradient><linearGradient id="D" x1="11.341" y1="26.237" x2="70.328" y2="26.237" href="#T"><stop stop-color="#c5c4d3"/><stop offset=".019" stop-color="#cac9d7"/><stop offset=".117" stop-color="#e0dfe7"/><stop offset=".225" stop-color="#efeff2"/><stop offset=".347" stop-color="#f8f8f9"/><stop offset=".519" stop-color="#fbfbfb"/><stop offset=".674" stop-color="#ecedf2"/><stop offset=".969" stop-color="#c6c7dc"/><stop offset="1" stop-color="#c2c3d9"/></linearGradient><linearGradient id="E" x1="11.508" y1="25.342" x2="70.168" y2="25.342" href="#T"><stop stop-color="#eeeef1"/><stop offset=".062" stop-color="#f3f3f5"/><stop offset=".252" stop-color="#fcfcfd"/><stop offset=".519" stop-color="#fff"/><stop offset=".769" stop-color="#f1f1f6"/><stop offset="1" stop-color="#dfe0eb"/></linearGradient><linearGradient id="F" x1="12.24" y1="25.98" x2="41.021" y2="25.98" href="#T"><stop stop-color="#b1b1be"/><stop offset=".342" stop-color="#b4b4c0"/><stop offset=".559" stop-color="#bcbcc7"/><stop offset=".741" stop-color="#cbcbd3"/><stop offset=".903" stop-color="#dfe0e4"/><stop offset="1" stop-color="#eff0f2"/></linearGradient><linearGradient id="G" x1="12.323" y1="26.47" x2="40.99" y2="26.47" href="#T"><stop stop-color="#b1b1be"/><stop offset=".342" stop-color="#b4b4c0"/><stop offset=".559" stop-color="#bcbcc7"/><stop offset=".741" stop-color="#cbcbd3"/><stop offset=".903" stop-color="#dfe0e4"/><stop offset="1" stop-color="#eff0f2"/></linearGradient><linearGradient id="H" x1="12.185" y1="27.139" x2="40.758" y2="27.139" href="#T"><stop stop-color="#b1b1be"/><stop offset=".342" stop-color="#b4b4c0"/><stop offset=".559" stop-color="#bcbcc7"/><stop offset=".741" stop-color="#cbcbd3"/><stop offset=".903" stop-color="#dfe0e4"/><stop offset="1" stop-color="#eff0f2"/></linearGradient><linearGradient id="I" x1="12.274" y1="26.628" x2="17.858" y2="26.628" href="#T"><stop stop-color="#b1b1be"/><stop offset=".43" stop-color="#b4b4c0"/><stop offset=".703" stop-color="#bcbcc9"/><stop offset=".931" stop-color="#cbcbd6"/><stop offset="1" stop-color="#d1d1dc"/></linearGradient><linearGradient id="J" x1="70.007" y1="26.077" x2="41.117" y2="26.077" href="#T"><stop stop-color="#b1b1be"/><stop offset=".342" stop-color="#b4b4c0"/><stop offset=".559" stop-color="#bcbcc7"/><stop offset=".741" stop-color="#cbcbd3"/><stop offset=".903" stop-color="#dfe0e4"/><stop offset="1" stop-color="#eff0f2"/></linearGradient><linearGradient id="K" x1="69.823" y1="26.543" x2="41.15" y2="26.543" href="#T"><stop stop-color="#b1b1be"/><stop offset=".342" stop-color="#b4b4c0"/><stop offset=".559" stop-color="#bcbcc7"/><stop offset=".741" stop-color="#cbcbd3"/><stop offset=".903" stop-color="#dfe0e4"/><stop offset="1" stop-color="#eff0f2"/></linearGradient><linearGradient id="L" x1="69.793" y1="27.33" x2="41.401" y2="27.33" href="#T"><stop stop-color="#b1b1be"/><stop offset=".342" stop-color="#b4b4c0"/><stop offset=".559" stop-color="#bcbcc7"/><stop offset=".741" stop-color="#cbcbd3"/><stop offset=".903" stop-color="#dfe0e4"/><stop offset="1" stop-color="#eff0f2"/></linearGradient><linearGradient id="M" x1="69.87" y1="26.898" x2="62.966" y2="26.898" href="#T"><stop stop-color="#b1b1be"/><stop offset=".43" stop-color="#b4b4c0"/><stop offset=".703" stop-color="#bcbcc9"/><stop offset=".931" stop-color="#cbcbd6"/><stop offset="1" stop-color="#d1d1dc"/></linearGradient><linearGradient id="N" x1="69.718" y1="26.788" x2="64.967" y2="26.788" href="#T"><stop stop-color="#b1b1be"/><stop offset=".43" stop-color="#b4b4c0"/><stop offset=".703" stop-color="#bcbcc9"/><stop offset=".931" stop-color="#cbcbd6"/><stop offset="1" stop-color="#d1d1dc"/></linearGradient><linearGradient id="O" x1="17.362" y1="15.315" x2="39.738" y2="28.875" href="#T"><stop stop-color="#ededed"/><stop offset=".414" stop-color="#fafbfd"/><stop offset=".582" stop-color="#f8faf9"/><stop offset="1" stop-color="#c1c0c5"/></linearGradient><linearGradient id="P" x1="62.675" y1="13.941" x2="41.379" y2="26.847" href="#T"><stop stop-color="#ededed"/><stop offset=".299" stop-color="#fafbfd"/><stop offset=".646" stop-color="#f8faf9"/><stop offset="1" stop-color="#c1c0c5"/></linearGradient><linearGradient id="Q" x1="18.173" y1="13.898" x2="40.507" y2="27.433" href="#T"><stop stop-color="#ededed"/><stop offset=".414" stop-color="#fafbfd"/><stop offset=".582" stop-color="#f8faf9"/><stop offset="1" stop-color="#c1c0c5"/></linearGradient><linearGradient id="R" x1="59.85" y1="11.64" x2="39.675" y2="23.867" href="#T"><stop stop-color="#ededed"/><stop offset=".299" stop-color="#fafbfd"/><stop offset=".646" stop-color="#f8faf9"/><stop offset="1" stop-color="#c1c0c5"/></linearGradient><clipPath id="S"><path fill="#fff" d="M0 0h170v40H0z"/></clipPath><linearGradient id="T" gradientUnits="userSpaceOnUse"/></defs></svg>