<svg width="340" height="64" viewBox="0 0 340 64" fill="none" xmlns="http://www.w3.org/2000/svg">
<g clip-path="url(#clip0_1611_213878)">
<path d="M308.164 63.9999C290.491 63.9999 276.164 49.6731 276.164 32C276.164 14.3269 290.491 -3.09006e-06 308.164 0C325.837 3.09006e-06 340.164 14.3269 340.164 32C340.164 49.6731 325.837 63.9999 308.164 63.9999Z" fill="#00B5AD"/>
<path d="M155.676 2.25072e-05C163.553 2.38846e-05 170.773 2.84237 176.351 7.55139C179.434 10.0951 183.39 11.6233 187.706 11.6233C192.021 11.6233 195.968 10.0951 199.051 7.5514C204.634 2.84237 211.848 3.23287e-05 219.731 3.3707e-05C237.417 3.67994e-05 251.756 14.3063 251.756 31.9527C251.756 49.5991 237.417 63.9054 219.731 63.9054C211.853 63.9054 204.634 61.0631 199.056 56.354C195.973 53.8104 192.016 52.2822 187.701 52.2822C183.385 52.2822 179.439 53.8104 176.355 56.354C170.778 61.063 163.563 63.9054 155.681 63.9054L0 63.9999L5.60332e-06 31.9527L0.13969 0L155.676 2.25072e-05Z" fill="url(#paint0_linear_1611_213878)"/>
</g>
<defs>
<linearGradient id="paint0_linear_1611_213878" x1="0.164062" y1="64" x2="252.164" y2="64" gradientUnits="userSpaceOnUse">
<stop stop-color="#885AF5"/>
<stop offset="1" stop-color="#00B5AD"/>
</linearGradient>
<clipPath id="clip0_1611_213878">
<rect width="340" height="64" fill="white"/>
</clipPath>
</defs>
</svg>
