<svg xmlns="http://www.w3.org/2000/svg" width="154" height="32" viewBox="0 0 154 32" fill="none" ><path d="M121.434 4.421a.3.3 0 0 0 .013-.085c0-.153-.123-.278-.279-.283h-3.459a.55.55 0 0 0-.514.359l-3.429 9.481c-.007.023-.012.053-.012.08 0 .153.125.281.278.283h3.462c.233 0 .434-.148.514-.356l3.426-9.479zm-11.1 13.159l-9.15.002c-1.816 0-3.67 1.069-4.415 3.022l-1.678 4.623a2.06 2.06 0 0 0-.103.632c0 1.069.865 1.934 1.934 1.934h.01 9.72c.225.008.431-.14.521-.369l.663-1.834c.002-.01.007-.02.012-.028a.42.42 0 0 0 .01-.083.29.29 0 0 0-.276-.289h-8.104-.002-.003c-.153-.002-.278-.128-.278-.283 0-.02.005-.038.008-.058H99.2s.002-.015.01-.038l1.547-4.277a.55.55 0 0 1 .519-.369h8.137.003a.55.55 0 0 0 .514-.359v-.002l.665-1.831.007-.028a.23.23 0 0 0 .015-.08c-.005-.155-.13-.286-.283-.288zM154 19.522a1.94 1.94 0 0 0-1.936-1.936h-.008-9.714a.56.56 0 0 0-.532.376l-3.354 9.278-.06.161c-.002.012-.01.02-.01.03v.002c0 .008-.002.02-.01.028 0 .018-.005.038-.005.055 0 .156.126.281.284.284v.002l11.124-.002c.9 0 1.615-.605 1.876-1.447l2.242-6.2v-.01a1.94 1.94 0 0 0 .103-.62zm-4.492 1.048l-1.548 4.279a.55.55 0 0 1-.519.369h-3.893c-.153-.005-.278-.13-.278-.284a.39.39 0 0 1 .015-.095l1.555-4.274c.073-.218.278-.374.519-.374l3.885.003v-.003c.153.003.279.13.279.284a.42.42 0 0 1-.015.095zM135.927 6.639h3.394c.15.003.275.128.275.283a.38.38 0 0 1-.012.09l-2.473 6.848c-.003.01-.008.02-.01.028v.002a.44.44 0 0 0-.01.083c0 .153.125.281.278.283h3.369c.235 0 .436-.15.511-.359l2.501-6.91.003-.005c.08-.198.271-.341.499-.344h4.412.002c.236 0 .437-.15.512-.359l.002-.003.655-1.826.008-.03c.007-.028.015-.055.015-.085a.28.28 0 0 0-.279-.283h-12.727c-.235 0-.439.148-.514.359l-.002.005-.667 1.826c0 .01-.006.02-.008.03a.23.23 0 0 0-.013.083c0 .156.126.281.279.283zm-35.324-2.588H90.184c-2.167.151-3.93 1.773-4.319 3.865v.005a1.81 1.81 0 0 0-.04.391c0 1.069.865 1.936 1.934 1.936h6.052a.54.54 0 0 1 .482.409c.01.028.018.06.018.115v.01.025.002c-.02.474-.411.855-.893.855h-8.305c-.236 0-.436.148-.512.356l-.67 1.874a.34.34 0 0 0-.012.083c0 .153.125.283.278.286h10.086a4.73 4.73 0 0 0 4.648-3.865 1.78 1.78 0 0 0 .043-.399c0-1.069-.865-1.944-1.936-1.944h-6.012-.002a.54.54 0 0 1-.522-.411c-.002-.03-.013-.058-.013-.115v-.038a.89.89 0 0 1 .893-.855h8.305a.54.54 0 0 0 .512-.359l.672-1.864c.007-.025.012-.053.012-.08 0-.156-.125-.281-.278-.283zm14.897 0h-10.419c-2.167.151-3.933 1.773-4.319 3.865a2.11 2.11 0 0 0-.04.396c0 1.069.865 1.936 1.936 1.936h6.055a.54.54 0 0 1 .481.409c.008.028.016.06.016.115v.01.025.002c-.023.474-.412.855-.893.855h-8.3a.55.55 0 0 0-.514.356l-.67 1.874c-.008.028-.013.053-.013.083 0 .153.125.283.278.286h10.085c2.316 0 4.244-1.668 4.651-3.865v-.005c.027-.128.04-.258.04-.394 0-1.069-.865-1.944-1.936-1.944h-6.013-.002c-.254 0-.467-.176-.522-.411-.003-.03-.015-.058-.015-.115v-.038c.023-.479.411-.855.893-.855h8.307c.236 0 .434-.148.512-.356l.672-1.864c.01-.025.013-.053.013-.08-.003-.158-.123-.283-.284-.286zm19.287 0h-9.13c-2.168.148-3.933 1.771-4.322 3.865v.005c-.023.128-.038.256-.038.391a1.94 1.94 0 0 0 1.937 1.936h6.052a.54.54 0 0 1 .484.409c.005.028.015.06.015.115v.01.025.002c-.02.474-.411.855-.893.855h-8.3a.54.54 0 0 0-.511.356l-.67 1.874c-.008.028-.013.053-.013.083 0 .153.123.283.279.286h10.086a4.73 4.73 0 0 0 4.647-3.865v-.005a1.83 1.83 0 0 0 .043-.394c0-1.069-.865-1.944-1.936-1.944h-6.013-.002c-.254 0-.462-.176-.519-.411-.005-.03-.018-.058-.018-.118l.003-.035c.017-.479.408-.855.89-.855h7.016a.54.54 0 0 0 .511-.356l.673-1.864c.007-.025.015-.053.015-.08-.008-.158-.133-.283-.286-.286zm-9.958 15.463c0-1.069-.863-1.934-1.937-1.934h-.01-.489-6.622l-.002.002h-.294c-1.816 0-3.669 1.069-4.414 3.022l-.457 1.242-.098.238-.79 2.182h-.002l-1.141 3.155v.003c-.008.025-.011.053-.011.083a.28.28 0 0 0 .006.063c.027.128.137.226.273.228h1.773v-.005h1.598.015.018.007c.236 0 .439-.151.514-.361l1.117-3.085c.125-.311.423-.537.777-.557h4.229a.29.29 0 0 1 .231.281c0 .01 0 .017-.003.025l-.198.557h.005l-.993 2.741c-.005.012-.005.02-.01.03v.002a.27.27 0 0 0-.013.083c0 .153.123.278.276.283h.003 1.048v.005h1.375.005.328a.43.43 0 0 0 .101-.005h.531.003c.238 0 .436-.151.514-.361l.003-.003.308-.855.083-.221 2.242-6.206a2.13 2.13 0 0 0 .101-.635zm-5.456 2.077c-.007.002-.828.002-1.695.002h-.176c-.931 0-1.861 0-1.864-.002-.243-.008-.444-.183-.499-.409-.007-.045-.015-.06-.015-.115l.003-.038a.89.89 0 0 1 .765-.845l.035-.008h3.888a.54.54 0 0 1 .469.409c.005.03.015.06.015.115v.01.03h-.003a.66.66 0 0 1-.02.158l-.078.213a.9.9 0 0 1-.792.484c-.01 0-.02-.003-.028-.003h-.005v-.002zM85.269 6.006c0-1.069-.865-1.934-1.936-1.934h-.01-.489-6.622-.003-.293c-1.819 0-3.667 1.066-4.415 3.022l-.456 1.242-.095.233-.79 2.187h-.005L69.01 13.91v.005c-.005.025-.01.053-.01.08s.002.043.007.063c.025.13.138.226.273.231h1.776v-.007h1.595.015.015.01c.236 0 .439-.148.514-.359l1.119-3.085c.125-.313.424-.539.775-.557h4.229a.29.29 0 0 1 .226.281v.025l-.198.557h.007l-.993 2.744c-.003.01-.008.02-.01.028v.005c-.007.025-.015.053-.015.08 0 .155.125.281.281.286h1.046v.008h1.377.007.326c.03 0 .065 0 .098-.008h.532c.236 0 .436-.148.514-.359l.311-.86a1.8 1.8 0 0 0 .08-.221l2.242-6.203a1.98 1.98 0 0 0 .108-.637zm-5.453 2.077H78.12h-.173-1.864c-.243-.01-.444-.183-.502-.411-.01-.043-.015-.06-.015-.118v-.01-.028c.018-.434.346-.785.765-.845.01-.005.025-.008.038-.008h3.88c.233.02.419.188.474.406.005.028.015.06.015.115v.01.025c0 .058-.01.11-.02.163l-.08.211a.89.89 0 0 1-.793.484h-.03v.005zm58.221 9.505h-10.61a.55.55 0 0 0-.517.349c-.01.033-3.426 9.479-3.429 9.486v.003c-.007.025-.012.053-.012.083 0 .155.125.281.278.286h3.411a.55.55 0 0 0 .515-.359l1.116-3.085c.133-.329.451-.562.83-.562h4.116.003c.158 0 .286.13.286.286 0 .03-.003.058-.013.088l-1.174 3.236c-.002.012-.01.02-.01.03v.002c-.007.025-.012.053-.012.083 0 .155.125.281.28.286h3.384c.238 0 .439-.151.514-.359.048-.12.75-2.054 1.029-2.822l-.003-.003c.05-.13.08-.268.08-.411 0-.632-.511-1.144-1.141-1.144 1.997-.597 2.614-1.864 2.847-3.133a2.86 2.86 0 0 0 .043-.316c0-.028.002-.055.002-.085 0-1.036-.8-1.876-1.813-1.939zm-2.832 3.12v.028c-.023.474-.414.853-.893.853h-.033a774.6 774.6 0 0 1-3.734 0 .54.54 0 0 1-.5-.409c-.007-.045-.015-.06-.015-.118v-.008-.003-.025a.9.9 0 0 1 .765-.845c.028-.008.056-.01.096-.01h3.78a.54.54 0 0 1 .521.411c.005.027.015.058.015.115v.01h-.002z" fill="#e6002b"/><g fill="#2d34ce"><path d="M4.28 15.688a4.3 4.3 0 0 1-1.464-.252v-4.08H4.94c1.608 0 1.932 1.08 1.932 1.956 0 1.08-.468 2.376-2.592 2.376zm-.036.756c2.508 0 3.516-1.488 3.516-3.132 0-1.392-.732-2.712-2.928-2.712H2V19h.816v-2.76c.408.132.9.204 1.428.204zm7.009 2.676c1.74 0 2.52-1.464 2.52-3.12s-.768-3.12-2.52-3.12c-1.728 0-2.52 1.464-2.52 3.12s.792 3.12 2.52 3.12zm0-.744c-1.284 0-1.68-1.176-1.68-2.376s.396-2.376 1.68-2.376c1.26 0 1.68 1.176 1.68 2.376s-.42 2.376-1.68 2.376zm9.663.768L22.62 13h-.888l-1.14 4.668-1.368-4.356c-.072-.228-.168-.312-.444-.312h-.54l-1.5 4.668-1.056-4.296c-.06-.24-.204-.372-.42-.372H14.7l1.584 5.712c.084.312.228.42.504.42h.228l1.656-5.232 1.5 4.824c.096.3.24.42.504.42h.24z"/><use href="#B"/><path d="M30.802 19v-3.468c0-1.284.732-1.752 1.416-1.752.252 0 .444.048.624.144l.168-.936c-.204-.072-.408-.108-.66-.108-.6 0-1.284.372-1.572 1.116l-.132-.768c-.036-.168-.12-.228-.288-.228h-.396v6h.84z"/><use href="#B" x="10.067"/><path d="M42.308 18.376c-1.224 0-1.704-1.224-1.704-2.304 0-1.284.588-2.448 1.86-2.448.66 0 1.2.348 1.44.636v2.436c0 1.236-.876 1.68-1.596 1.68zm1.632-.096l.084.72h.72v-9h-.816v3.48c-.372-.396-1.02-.6-1.584-.6-1.56 0-2.58 1.392-2.58 3.192 0 1.692.888 3.048 2.46 3.048.72 0 1.38-.348 1.716-.84zm7.937.84c1.98 0 2.916-1.452 2.916-3.348 0-1.572-.744-2.892-2.4-2.892-.708 0-1.452.372-1.764 1.056V10h-.816v8.592c.456.276 1.104.528 2.064.528zm.12-.744c-.612 0-1.056-.108-1.344-.276v-2.232c0-1.656.852-2.244 1.668-2.244 1.284 0 1.632 1.128 1.632 2.148 0 1.284-.516 2.604-1.956 2.604zm6.526 3.672c1.74 0 2.34-.96 2.34-2.352V13h-.84v3.732c0 1.212-.78 1.644-1.452 1.644-.792 0-1.392-.432-1.392-1.644V13h-.84v3.864c0 1.416.756 2.256 2.124 2.256.552 0 1.236-.264 1.596-.816v1.284c0 .948-.324 1.704-1.536 1.704-.72 0-1.164-.216-1.596-.456l-.252.696c.528.336 1.224.516 1.848.516z"/></g><defs ><path id="B" d="M26.065 13.624c1.128 0 1.512.9 1.512 1.824v.06h-3.168c.108-1.008.552-1.884 1.656-1.884zm2.196 5.076l-.264-.66c-.444.228-.96.336-1.656.336-1.392 0-1.896-1.056-1.956-2.172h4.032v-.456c0-1.584-.612-2.868-2.352-2.868-1.728 0-2.52 1.464-2.52 3.12s.84 3.12 2.784 3.12c.792 0 1.32-.12 1.932-.42z"/></defs></svg>