<svg width="340" height="64" viewBox="0 0 340 64" fill="none" xmlns="http://www.w3.org/2000/svg">
<g clip-path="url(#clip0_1611_213874)">
<path d="M32 63.9999C49.6731 63.9999 64 49.6731 64 32C64 14.3269 49.6731 -3.09006e-06 32 0C14.3269 3.09006e-06 6.10352e-05 14.3269 6.10352e-05 32C6.10352e-05 49.6731 14.3269 63.9999 32 63.9999Z" fill="#00B5AD"/>
<path d="M184.488 2.25072e-05C176.611 2.38846e-05 169.391 2.84237 163.814 7.55139C160.73 10.0951 156.774 11.6233 152.458 11.6233C148.143 11.6233 144.196 10.0951 141.113 7.5514C135.53 2.84237 128.316 3.23287e-05 120.433 3.3707e-05C102.747 3.67994e-05 88.4082 14.3063 88.4082 31.9527C88.4082 49.5991 102.747 63.9054 120.433 63.9054C128.311 63.9054 135.53 61.0631 141.108 56.354C144.191 53.8104 148.148 52.2822 152.463 52.2822C156.779 52.2822 160.725 53.8104 163.809 56.354C169.386 61.063 176.601 63.9054 184.483 63.9054L340.164 63.9999L340.164 31.9527L340.024 0L184.488 2.25072e-05Z" fill="url(#paint0_linear_1611_213874)"/>
</g>
<defs>
<linearGradient id="paint0_linear_1611_213874" x1="340" y1="64" x2="88" y2="64" gradientUnits="userSpaceOnUse">
<stop stop-color="#885AF5"/>
<stop offset="1" stop-color="#00B5AD"/>
</linearGradient>
<clipPath id="clip0_1611_213874">
<rect width="340" height="64" fill="white"/>
</clipPath>
</defs>
</svg>
