<svg xmlns="http://www.w3.org/2000/svg" width="200" height="61" viewBox="0 0 200 61" fill="none" ><path d="M129.67 47.119v13.723h2.161V47.119h-2.161zm37.724 0v13.723h11.085V58.84h-8.924v-4.293h7.771v-1.844h-7.771v-3.714h8.633v-1.857h-10.794v-.013zm-91.427 0v13.723h2.161V47.119h-2.161zm35.709 13.736h10.078v-1.857h-7.917V47.132h-2.161v13.723zM95.115 54.85c-1.578 0-3.169-.435-4.177-1.001v-5.15h5.622c2.731 0 3.739 1.436 3.739 2.713 0 1.857-1.445 3.437-5.184 3.437zm-33.402.566h-6.338l3.169-6.44 3.169 6.44zm82.794 5.439v-11.3l9.508 10.72c.292.435.716.566 1.299.566h1.3V47.119h-2.016v10.865l-9.374-10.286c-.292-.435-.571-.566-1.3-.566h-1.445v13.723h2.028zm-53.569 0V55.85c1.008.566 2.453.856 4.031.856.862 0 1.445 0 2.161-.145l2.877 4.293h2.308l-3.169-4.86c2.016-.856 3.314-2.568 3.314-4.57 0-2.568-2.161-4.438-6.046-4.438h-7.638v13.868h2.161zm-26.626 0h2.148l-6.471-13.157c-.292-.435-.57-.566-1.008-.566h-1.578L50.64 60.855h2.161l1.724-3.569h8.062l1.724 3.569zm130.013-14.013c-3.739 0-6.193 1.58-6.193 4.004 0 2.292 1.87 3.148 4.893 3.714l1.446.29c2.161.435 3.315 1.146 3.315 2.291s-1.154 2.002-4.031 2.002c-2.586 0-4.615-.856-5.185-1.291l-.57 2.002c.57.29 2.585 1.146 5.609 1.146 4.031 0 6.338-1.567 6.338-4.004 0-2.291-2.016-3.437-5.185-4.004l-1.445-.29c-2.307-.435-3.023-.856-3.023-2.002s1.299-2.002 3.885-2.002c2.161 0 3.739.435 4.468.711l.438-1.712c-.875-.29-2.466-.856-4.76-.856zm-80.169-14.711h6.073V15.326l10.608-.698v-4.333h-27.289v4.333l10.608.698v16.805zm-43.824 0l2.493-5.031H58.08V10.295h-6.312v21.836h18.564zm23.47-8.442h-8.181l4.137-8.745 4.044 8.745zm54.896 0h-8.195l4.137-8.745 4.058 8.745zm27.753 3.108c.238.777 1.166 1.317 2.187 1.317h6.312l4.681-12.854 4.442 16.884H200l-4.906-19.36c-.464-1.936-1.565-2.476-3.355-2.476h-6.166l-4.442 12.775-3.514-10.852c-.464-1.383-1.326-1.936-2.731-1.936h-6.935l-5.689 21.836h6.007l4.363-16.884 3.819 11.55zm-23.616 5.334h6.63l-10.449-20.453c-.544-1.001-1.087-1.396-2.334-1.396h-5.768l-10.992 21.836h6.709l1.949-4.03h12.319l1.936 4.043zm-54.976 0h6.71L94.12 11.678c-.544-1.001-1.087-1.396-2.347-1.396h-5.768L75.013 32.118h6.696l1.949-4.03h12.318l1.883 4.043zM8.977 54.31l5.383-1.949c1.127-.408 1.127.487 1.127 1.831v2.463c0 1.989-.676 2.226-1.565 2.555L8.977 61v-6.69zm0-10.905l13.671-4.939c1.127-.408 1.127.487 1.127 1.831v2.45c0 2.002-.676 2.239-1.565 2.568l-13.233 4.78v-6.69zM7.85 27.851L.902 25.335C0 25.006 0 23.794 0 23.36c0 0 0 1.462 1.339.975l34.078-12.314c2.692-.975 2.692-1.725 1.565-2.133 1.127.408 1.127.408 1.127 3.674 0 3.121 0 4.162-1.339 4.649l-26.679 9.64c-1.114.408-1.114.408-2.241 0zm29.145-7.046c1.127.408 1.127 1.159-1.565 2.134L8.977 32.5v6.677l27.806-10.049c1.339-.487 1.339-1.528 1.339-4.649 0-3.279 0-3.279-1.127-3.674z" fill="#fff"/><path d="M2.917 15.156l11.907 4.307 9.242-3.345L1.804 8.07c-1.565-.566-1.79-.645-1.79.461v2.897C0 14.102 2.029 14.84 2.917 15.156zm34.078 5.649l-3.686-1.343-9.242 3.345 5.848 2.12 5.516-1.989c2.692-.988 2.692-1.738 1.565-2.134zm0-10.918L10.767.405c-1.565-.566-1.79-.645-1.79.461v2.897c0 2.673 2.015 3.398 2.917 3.727l18.033 6.519 5.516-1.989c2.678-.975 2.678-1.725 1.551-2.134zM1.353 24.335l7.624-2.753-7.174-2.594c-1.565-.566-1.79-.645-1.79.461v3.911c-.013 0-.013 1.462 1.339.975z" fill="#ed1650"/></svg>