<svg width="48" height="48" viewBox="0 0 48 48" fill="none" xmlns="http://www.w3.org/2000/svg">
<ellipse cx="24" cy="45.0761" rx="12" ry="1.92771" fill="#DFE2F6"/>
<path d="M24.3936 8.63281H23.7109V21.7994H24.3936V8.63281Z" fill="#4658DF"/>
<path d="M24.7359 8.63281H24.3945V21.7994H24.7359V8.63281Z" fill="#2D34CE"/>
<path d="M31.9053 8.63281H31.2227V21.7994H31.9053V8.63281Z" fill="#4658DF"/>
<path d="M32.1299 8.39844H31.9023V22.6136H32.1299V8.39844Z" fill="#2D34CE"/>
<path d="M23.6992 8.99381V7.98716C23.7104 7.84989 23.7439 7.56392 23.9561 7.34658C24.1013 7.19787 24.2576 7.15211 24.4475 7.09491C24.5927 7.04916 24.7379 7.02628 25.0953 7.01484C25.3745 7.0034 25.5197 7.0034 25.7542 7.01484C26.4578 7.04916 29.3728 6.95765 30.8582 7.02628C30.9699 7.02628 31.3049 7.04916 31.64 7.2665C31.9304 7.46097 32.0421 7.68975 32.0644 7.74695C32.1426 7.91853 32.1649 8.09012 32.1761 8.18163C32.1761 8.45617 32.1761 8.73071 32.1761 9.00525H23.6992V8.99381Z" fill="#10004F"/>
<path d="M30.168 43.7979C30.168 43.7865 30.168 43.7865 30.168 43.775V42.1392C30.168 42.0134 30.2685 41.9219 30.4025 41.9219C30.5254 41.9219 30.637 42.0248 30.637 42.1392V43.0429C30.7822 42.9514 30.9609 42.9056 31.1508 42.9056C31.698 42.9056 32.1336 43.3289 32.1336 43.8437C32.1336 44.3584 31.698 44.7817 31.1508 44.7817C30.6035 44.7817 30.168 44.3584 30.168 43.8437C30.168 43.8208 30.168 43.8093 30.168 43.7979Z" fill="#10004F"/>
<path d="M27.3203 43.7979C27.3203 43.7865 27.3203 43.7865 27.3203 43.775V42.1392C27.3203 42.0134 27.4208 41.9219 27.5548 41.9219C27.6777 41.9219 27.7894 42.0248 27.7894 42.1392V43.0429C27.9346 42.9514 28.1133 42.9056 28.3031 42.9056C28.8504 42.9056 29.286 43.3289 29.286 43.8437C29.286 44.3584 28.8504 44.7817 28.3031 44.7817C27.7559 44.7817 27.3203 44.3584 27.3203 43.8437C27.3203 43.8208 27.3203 43.8093 27.3203 43.7979Z" fill="#10004F"/>
<path d="M18.2302 43.7979C18.2302 43.7865 18.2302 43.7865 18.2302 43.775V42.1392C18.2302 42.0134 18.1297 41.9219 17.9956 41.9219C17.8616 41.9219 17.7611 42.0248 17.7611 42.1392V43.0429C17.6047 42.9514 17.426 42.9056 17.2362 42.9056C16.6889 42.9056 16.2422 43.3289 16.2422 43.8437C16.2422 44.3584 16.6889 44.7817 17.2362 44.7817C17.7834 44.7817 18.2302 44.3584 18.2302 43.8437C18.2302 43.8208 18.2302 43.8093 18.2302 43.7979Z" fill="#10004F"/>
<path d="M27.1855 42.5198V21.1172C23.8908 21.1515 20.5961 21.1973 17.3014 21.2316C16.542 21.2201 15.8495 21.5976 15.5145 22.2497C15.2799 22.7187 15.2799 23.1762 15.3023 23.405C15.3023 29.1703 15.3023 34.9357 15.3023 40.701C15.3023 40.701 15.3916 42.3254 17.2232 42.5198H27.1855Z" fill="#4658DF"/>
<path d="M27.1875 21.1263H31.7666C31.7666 21.1263 32.1798 21.0462 32.1798 22.1672V41.2935C32.1798 41.2935 32.0234 42.4717 30.5827 42.5289H27.1875V21.1263Z" fill="#2D34CE"/>
<path d="M17.1572 40.255H16.811C16.7104 40.255 16.6211 40.1635 16.6211 40.0605V23.2335C16.6211 23.1306 16.7104 23.0391 16.811 23.0391H17.1572C17.2577 23.0391 17.347 23.1306 17.347 23.2335V40.0605C17.347 40.1635 17.2577 40.255 17.1572 40.255Z" fill="#A7B1E9"/>
<path d="M19.4228 40.255H19.0766C18.9761 40.255 18.8867 40.1635 18.8867 40.0605V23.2335C18.8867 23.1306 18.9761 23.0391 19.0766 23.0391H19.4228C19.5233 23.0391 19.6127 23.1306 19.6127 23.2335V40.0605C19.6127 40.1635 19.5345 40.255 19.4228 40.255Z" fill="#A7B1E9"/>
<path d="M21.6142 40.255H21.268C21.1675 40.255 21.0781 40.1635 21.0781 40.0605V23.2335C21.0781 23.1306 21.1675 23.0391 21.268 23.0391H21.6142C21.7147 23.0391 21.8041 23.1306 21.8041 23.2335V40.0605C21.8041 40.1635 21.7147 40.255 21.6142 40.255Z" fill="#A7B1E9"/>
<path d="M23.6767 40.255H23.3305C23.23 40.255 23.1406 40.1635 23.1406 40.0605V23.2335C23.1406 23.1306 23.23 23.0391 23.3305 23.0391H23.6767C23.7772 23.0391 23.8666 23.1306 23.8666 23.2335V40.0605C23.8666 40.1635 23.7884 40.255 23.6767 40.255Z" fill="#A7B1E9"/>
<path d="M25.7002 40.255H25.3539C25.2534 40.255 25.1641 40.1635 25.1641 40.0605V23.2335C25.1641 23.1306 25.2534 23.0391 25.3539 23.0391H25.7002C25.8007 23.0391 25.89 23.1306 25.89 23.2335V40.0605C25.89 40.1635 25.8007 40.255 25.7002 40.255Z" fill="#A7B1E9"/>
<path d="M28.9267 40.255H28.5805C28.48 40.255 28.3906 40.1635 28.3906 40.0605V23.2335C28.3906 23.1306 28.48 23.0391 28.5805 23.0391H28.9267C29.0272 23.0391 29.1166 23.1306 29.1166 23.2335V40.0605C29.1166 40.1635 29.0272 40.255 28.9267 40.255Z" fill="#A7B1E9"/>
<path d="M31.0517 40.255H30.7055C30.605 40.255 30.5156 40.1635 30.5156 40.0605V23.2335C30.5156 23.1306 30.605 23.0391 30.7055 23.0391H31.0517C31.1522 23.0391 31.2416 23.1306 31.2416 23.2335V40.0605C31.2416 40.1635 31.1522 40.255 31.0517 40.255Z" fill="#A7B1E9"/>
</svg>
