<svg width="48" height="48" viewBox="0 0 48 48" fill="none" xmlns="http://www.w3.org/2000/svg">
<ellipse cx="24.1" cy="44.2177" rx="16.1" ry="2.78022" fill="#DFE2F6"/>
<path d="M22.4486 3.57031H21.6758V10.9092H22.4486V3.57031Z" fill="#4658DF"/>
<path d="M30.9252 3.57812H30.1523V10.917H30.9252V3.57812Z" fill="#4658DF"/>
<path d="M22.5658 3.35938H22.3398V10.8941H22.5658V3.35938Z" fill="#1B0088"/>
<path d="M30.9837 3.35938H30.7578V10.8941H30.9837V3.35938Z" fill="#1B0088"/>
<path d="M21.6745 3.56574V2.16848C21.6745 2.16848 21.5674 0.980163 22.7327 1.08463H29.9381C29.9381 1.08463 30.9963 1.0324 30.9844 2.32519V3.59185L21.6745 3.56574Z" fill="#1B0088"/>
<path d="M33.8991 42.4189C33.7564 42.2752 33.5781 42.0532 33.4473 41.7529C33.1619 41.0739 33.2927 40.4209 32.9954 40.2903C32.9479 40.2642 32.8765 40.2512 32.7695 40.2903C32.7695 41.2697 32.7695 42.2491 32.7695 43.2285C32.7695 43.2285 33.3403 42.1577 33.8991 42.4189Z" fill="#10004F"/>
<path d="M33.8991 44.4289C34.5229 44.4289 35.0287 43.8851 35.0287 43.2144C35.0287 42.5437 34.5229 42 33.8991 42C33.2753 42 32.7695 42.5437 32.7695 43.2144C32.7695 43.8851 33.2753 44.4289 33.8991 44.4289Z" fill="#10004F"/>
<path d="M33.901 43.7007C34.1506 43.7007 34.3529 43.4844 34.3529 43.2175C34.3529 42.9507 34.1506 42.7344 33.901 42.7344C33.6515 42.7344 33.4492 42.9507 33.4492 43.2175C33.4492 43.4844 33.6515 43.7007 33.901 43.7007Z" fill="#4658DF"/>
<path d="M29.0124 42.4189C28.8697 42.2752 28.6913 42.0532 28.5606 41.7529C28.2752 41.0739 28.406 40.4209 28.1087 40.2903C28.0612 40.2642 27.9898 40.2512 27.8828 40.2903C27.8828 41.2697 27.8828 42.2491 27.8828 43.2285C27.8828 43.2285 28.4416 42.1577 29.0124 42.4189Z" fill="#10004F"/>
<path d="M29.0124 44.4289C29.6362 44.4289 30.1419 43.8851 30.1419 43.2144C30.1419 42.5437 29.6362 42 29.0124 42C28.3885 42 27.8828 42.5437 27.8828 43.2144C27.8828 43.8851 28.3885 44.4289 29.0124 44.4289Z" fill="#10004F"/>
<path d="M29.0104 43.7007C29.26 43.7007 29.4622 43.4844 29.4622 43.2175C29.4622 42.9507 29.26 42.7344 29.0104 42.7344C28.7609 42.7344 28.5586 42.9507 28.5586 43.2175C28.5586 43.4844 28.7609 43.7007 29.0104 43.7007Z" fill="#4658DF"/>
<path d="M15.707 42.4814C15.8497 42.3377 16.0281 42.1157 16.147 41.8154C16.4323 41.1364 16.3015 40.4834 16.5869 40.3528C16.6345 40.3267 16.7058 40.3137 16.8128 40.3528C16.8128 41.3322 16.8128 42.3116 16.8128 43.291C16.8128 43.291 16.254 42.2202 15.707 42.4814Z" fill="#10004F"/>
<path d="M15.7073 44.4757C16.318 44.4757 16.8131 43.932 16.8131 43.2613C16.8131 42.5906 16.318 42.0469 15.7073 42.0469C15.0966 42.0469 14.6016 42.5906 14.6016 43.2613C14.6016 43.932 15.0966 44.4757 15.7073 44.4757Z" fill="#10004F"/>
<path d="M15.7056 43.7476C15.9485 43.7476 16.1455 43.5313 16.1455 43.2644C16.1455 42.9976 15.9485 42.7812 15.7056 42.7812C15.4626 42.7812 15.2656 42.9976 15.2656 43.2644C15.2656 43.5313 15.4626 43.7476 15.7056 43.7476Z" fill="#4658DF"/>
<path d="M34.3983 6.30469H33.4114H27.8825H27.6328C27.6923 7.25795 27.7517 8.5638 27.7636 9.73906C27.7755 9.80435 27.7874 9.8827 27.7993 9.90882C27.8349 10.0133 27.8706 10.1308 27.8825 10.2483V33.2834C27.8468 33.6491 27.8112 34.0017 27.7636 34.3673C27.7517 34.5109 27.7279 34.6546 27.716 34.7982C27.7042 34.9941 27.7042 35.19 27.6923 35.3858C27.7636 35.6992 27.8231 36.0127 27.8706 36.3261C27.8706 36.3652 27.8825 36.4044 27.8825 36.4305V40.8182H28.0371H33.4114H34.3983C35.9202 40.8182 37.1806 39.447 37.1806 37.7625V9.36037C37.1806 7.67583 35.9321 6.30469 34.3983 6.30469Z" fill="#1B0088"/>
<path d="M29.2612 40.8338H13.4355C12.6151 40.8338 11.9492 40.1025 11.9492 39.2015V7.95262C11.9492 7.05159 12.6151 6.32031 13.4355 6.32031H29.2731C30.0935 6.32031 30.7594 7.05159 30.7594 7.95262V39.2015C30.7594 40.1025 30.0816 40.8338 29.2612 40.8338Z" fill="#4658DF"/>
<path d="M34.6613 26.8125H33.5111C33.23 26.8125 33 26.5599 33 26.2511V18.6864C33 18.3776 33.23 18.125 33.5111 18.125H34.6613C34.9424 18.125 35.1724 18.3776 35.1724 18.6864V26.2511C35.1724 26.5599 34.9424 26.8125 34.6613 26.8125Z" fill="#4658DF"/>
<path d="M33.6132 26.8125H33.3979C33.1167 26.8125 32.8867 26.5599 32.8867 26.2511V18.6864C32.8867 18.3776 33.1167 18.125 33.3979 18.125H33.6132V26.8125Z" fill="#2D34CE"/>
<path d="M28.8836 7.77344C28.3723 8.17825 27.9681 8.73976 27.647 9.32739C27.3379 9.92808 27.112 10.581 26.9931 11.247L26.9455 11.4951L26.9217 11.6257L26.9098 11.7563C26.898 11.926 26.8742 12.0958 26.8623 12.2655C26.8504 12.6051 26.8385 12.9446 26.8504 13.2972L26.8623 15.3735C26.8861 18.1418 26.8742 20.9102 26.8861 23.6917C26.8742 26.4601 26.8742 29.2285 26.8623 32.0099L26.8504 34.0862C26.8385 34.7783 26.9098 35.4573 27.0287 36.1364C27.2547 37.4814 27.7303 38.8134 28.5388 39.8841C28.1108 39.3749 27.7659 38.7742 27.5044 38.1474C27.2428 37.5206 27.0406 36.8415 26.9098 36.1625C26.7791 35.4835 26.6958 34.7914 26.6958 34.0862L26.6839 32.0099C26.6602 29.2415 26.6602 26.4731 26.6602 23.6917C26.672 20.9233 26.672 18.1549 26.6839 15.3735L26.6958 13.2972C26.6958 12.9576 26.7077 12.6051 26.7315 12.2525C26.7672 11.8999 26.8028 11.5604 26.8861 11.2209C27.0287 10.5418 27.2665 9.8889 27.5995 9.28821C27.9443 8.70058 28.3604 8.16519 28.8836 7.77344Z" fill="#1B0088"/>
<path d="M26.2313 7.61719C25.72 8.022 25.3157 8.58352 24.9947 9.17115C24.6856 9.77183 24.4596 10.4247 24.3407 11.0907L24.2932 11.3388L24.2694 11.4694L24.2575 11.6C24.2456 11.7698 24.2218 11.9395 24.2099 12.1093C24.1981 12.4488 24.1862 12.7883 24.1981 13.1409L24.2099 15.2172C24.2337 17.9856 24.2218 20.754 24.2337 23.5354C24.2218 26.3038 24.2218 29.0722 24.2099 31.8537L24.1981 33.93C24.1862 34.6221 24.2575 35.3011 24.3764 35.9801C24.6023 37.3252 25.0779 38.6571 25.8865 39.7279C25.4584 39.2186 25.1136 38.6179 24.852 37.9911C24.5904 37.3643 24.3883 36.6853 24.2575 36.0063C24.1267 35.3272 24.0435 34.6351 24.0435 33.93L24.0316 31.8537C24.0078 29.0853 24.0078 26.3169 24.0078 23.5354C24.0197 20.767 24.0197 17.9987 24.0316 15.2172L24.0435 13.1409C24.0435 12.8014 24.0554 12.4488 24.0792 12.0962C24.1148 11.7437 24.1505 11.4041 24.2337 11.0646C24.3764 10.3856 24.6142 9.73265 24.9471 9.13196C25.2801 8.54433 25.7081 7.99588 26.2313 7.61719Z" fill="#1B0088"/>
<path d="M23.7899 7.85156C23.2786 8.25637 22.8743 8.81789 22.5533 9.40552C22.2441 10.0062 22.0182 10.6591 21.8993 11.3251L21.8518 11.5732L21.828 11.7038L21.8161 11.8344C21.8042 12.0041 21.7804 12.1739 21.7685 12.3437C21.7566 12.6832 21.7448 13.0227 21.7567 13.3753L21.7685 15.4516C21.7923 18.22 21.7804 20.9884 21.7923 23.7698C21.7804 26.5382 21.7804 29.3066 21.7685 32.088L21.7567 34.1643C21.7448 34.8564 21.8161 35.5355 21.935 36.2145C22.1609 37.5595 22.6365 38.8915 23.4451 39.9623C23.017 39.453 22.6722 38.8523 22.4106 38.2255C22.149 37.5987 21.9469 36.9197 21.8161 36.2406C21.6853 35.5616 21.6021 34.8695 21.6021 34.1643L21.5902 32.088C21.5664 29.3197 21.5664 26.5513 21.5664 23.7698C21.5783 21.0014 21.5783 18.233 21.5902 15.4516L21.6021 13.3753C21.6021 13.0358 21.614 12.6832 21.6378 12.3306C21.6734 11.978 21.7091 11.6385 21.7923 11.299C21.935 10.62 22.1728 9.96704 22.5057 9.36635C22.8387 8.77872 23.2667 8.24332 23.7899 7.85156Z" fill="#1B0088"/>
<path d="M21.3524 7.85156C20.8411 8.25637 20.4368 8.81789 20.1158 9.40552C19.8066 10.0062 19.5807 10.6591 19.4618 11.3251L19.4143 11.5732L19.3905 11.7038L19.3786 11.8344C19.3667 12.0041 19.3429 12.1739 19.331 12.3437C19.3191 12.6832 19.3073 13.0227 19.3192 13.3753L19.331 15.4516C19.3548 18.22 19.3429 20.9884 19.3548 23.7698C19.3429 26.5382 19.3429 29.3066 19.331 32.088L19.3192 34.1643C19.3073 34.8564 19.3786 35.5355 19.4975 36.2145C19.7234 37.5595 20.199 38.8915 21.0076 39.9623C20.5795 39.453 20.2347 38.8523 19.9731 38.2255C19.7115 37.5987 19.5094 36.9197 19.3786 36.2406C19.2478 35.5616 19.1646 34.8695 19.1646 34.1643L19.1527 32.088C19.1289 29.3197 19.1289 26.5513 19.1289 23.7698C19.1408 21.0014 19.1408 18.233 19.1527 15.4516L19.1646 13.3753C19.1646 13.0358 19.1765 12.6832 19.2003 12.3306C19.2359 11.978 19.2716 11.6385 19.3548 11.299C19.4975 10.62 19.7353 9.96704 20.0682 9.36635C20.413 8.77872 20.8292 8.24332 21.3524 7.85156Z" fill="#1B0088"/>
<path d="M18.7039 7.85156C18.1926 8.25637 17.7884 8.81789 17.4673 9.40552C17.1582 10.0062 16.9323 10.6591 16.8134 11.3251L16.7658 11.5732L16.7421 11.7038L16.7302 11.8344C16.7183 12.0041 16.6945 12.1739 16.6826 12.3437C16.6707 12.6832 16.6588 13.0227 16.6707 13.3753L16.6826 15.4516C16.7064 18.22 16.6945 20.9884 16.7064 23.7698C16.6945 26.5382 16.6945 29.3066 16.6826 32.088L16.6707 34.1643C16.6588 34.8564 16.7302 35.5355 16.8491 36.2145C17.075 37.5595 17.5506 38.8915 18.3591 39.9623C17.9311 39.453 17.5863 38.8523 17.3247 38.2255C17.0631 37.5987 16.861 36.9197 16.7302 36.2406C16.5994 35.5616 16.5161 34.8695 16.5161 34.1643L16.5043 32.088C16.4805 29.3197 16.4805 26.5513 16.4805 23.7698C16.4924 21.0014 16.4924 18.233 16.5043 15.4516L16.5161 13.3753C16.5161 13.0358 16.528 12.6832 16.5518 12.3306C16.5875 11.978 16.6232 11.6385 16.7064 11.299C16.8491 10.62 17.0869 9.96704 17.4198 9.36635C17.7527 8.77872 18.1808 8.24332 18.7039 7.85156Z" fill="#1B0088"/>
<path d="M16.0399 7.85156C15.5286 8.25637 15.1243 8.81789 14.8033 9.40552C14.4941 10.0062 14.2682 10.6591 14.1493 11.3251L14.1018 11.5732L14.078 11.7038L14.0661 11.8344C14.0542 12.0041 14.0304 12.1739 14.0185 12.3437C14.0066 12.6832 13.9948 13.0227 14.0066 13.3753L14.0185 15.4516C14.0423 18.22 14.0304 20.9884 14.0423 23.7698C14.0304 26.5382 14.0304 29.3066 14.0185 32.088L14.0066 34.1643C13.9948 34.8564 14.0661 35.5355 14.185 36.2145C14.4109 37.5595 14.8865 38.8915 15.695 39.9623C15.267 39.453 14.9222 38.8523 14.6606 38.2255C14.399 37.5987 14.1969 36.9197 14.0661 36.2406C13.9353 35.5616 13.8521 34.8695 13.8521 34.1643L13.8402 32.088C13.8164 29.3197 13.8164 26.5513 13.8164 23.7698C13.8283 21.0014 13.8283 18.233 13.8402 15.4516L13.8521 13.3753C13.8521 13.0358 13.864 12.6832 13.8877 12.3306C13.9234 11.978 13.9591 11.6385 14.0423 11.299C14.185 10.62 14.4228 9.96704 14.7557 9.36635C15.1005 8.77872 15.5167 8.24332 16.0399 7.85156Z" fill="#1B0088"/>
<path d="M22.4932 3.47656H21.7227V10.7937H22.4932V3.47656Z" fill="#5EC8D3"/>
<path d="M30.9464 3.49219H30.1758V10.8093H30.9464V3.49219Z" fill="#5EC8D3"/>
<path d="M22.612 3.27344H22.3867V10.7859H22.612V3.27344Z" fill="#0D89BA"/>
<path d="M31.0026 3.27344H30.7773V10.7859H31.0026V3.27344Z" fill="#0D89BA"/>
<path d="M21.7213 3.48026V2.08713C21.7213 2.08713 21.6146 0.902328 22.7764 1.00649H29.9605C29.9605 1.00649 31.0156 0.954411 31.0037 2.24337V3.50629L21.7213 3.48026Z" fill="#10004F"/>
<path d="M33.9075 42.2172C33.7652 42.074 33.5874 41.8526 33.457 41.5532C33.1725 40.8762 33.3029 40.2252 33.0065 40.095C32.9591 40.0689 32.8879 40.0559 32.7812 40.095C32.7812 41.0714 32.7812 42.0479 32.7812 43.0244C32.7812 43.0244 33.3503 41.9568 33.9075 42.2172Z" fill="#10004F"/>
<path d="M33.9075 44.2186C34.5295 44.2186 35.0337 43.6764 35.0337 43.0077C35.0337 42.339 34.5295 41.7969 33.9075 41.7969C33.2855 41.7969 32.7812 42.339 32.7812 43.0077C32.7812 43.6764 33.2855 44.2186 33.9075 44.2186Z" fill="#10004F"/>
<path d="M33.9075 43.4869C34.1563 43.4869 34.358 43.2712 34.358 43.0052C34.358 42.7391 34.1563 42.5234 33.9075 42.5234C33.6587 42.5234 33.457 42.7391 33.457 43.0052C33.457 43.2712 33.6587 43.4869 33.9075 43.4869Z" fill="#5EC8D3"/>
<path d="M29.0364 42.2172C28.8941 42.074 28.7163 41.8526 28.5859 41.5532C28.3014 40.8762 28.4318 40.2252 28.1354 40.095C28.088 40.0689 28.0169 40.0559 27.9102 40.095C27.9102 41.0714 27.9102 42.0479 27.9102 43.0244C27.9102 43.0244 28.4673 41.9568 29.0364 42.2172Z" fill="#10004F"/>
<path d="M29.0364 44.2186C29.6584 44.2186 30.1626 43.6764 30.1626 43.0077C30.1626 42.339 29.6584 41.7969 29.0364 41.7969C28.4144 41.7969 27.9102 42.339 27.9102 43.0077C27.9102 43.6764 28.4144 44.2186 29.0364 44.2186Z" fill="#10004F"/>
<path d="M29.0364 43.4869C29.2852 43.4869 29.4869 43.2712 29.4869 43.0052C29.4869 42.7391 29.2852 42.5234 29.0364 42.5234C28.7876 42.5234 28.5859 42.7391 28.5859 43.0052C28.5859 43.2712 28.7876 43.4869 29.0364 43.4869Z" fill="#5EC8D3"/>
<path d="M15.7695 42.2797C15.9118 42.1365 16.0896 41.9151 16.2082 41.6157C16.4927 40.9387 16.3623 40.2877 16.6468 40.1575C16.6942 40.1314 16.7653 40.1184 16.872 40.1575C16.872 41.1339 16.872 42.1104 16.872 43.0869C16.872 43.0869 16.3149 42.0193 15.7695 42.2797Z" fill="#10004F"/>
<path d="M15.7705 44.2732C16.3794 44.2732 16.873 43.7311 16.873 43.0624C16.873 42.3937 16.3794 41.8516 15.7705 41.8516C15.1616 41.8516 14.668 42.3937 14.668 43.0624C14.668 43.7311 15.1616 44.2732 15.7705 44.2732Z" fill="#10004F"/>
<path d="M15.7707 43.5416C16.0129 43.5416 16.2093 43.3259 16.2093 43.0599C16.2093 42.7938 16.0129 42.5781 15.7707 42.5781C15.5284 42.5781 15.332 42.7938 15.332 43.0599C15.332 43.3259 15.5284 43.5416 15.7707 43.5416Z" fill="#5EC8D3"/>
<path d="M34.4056 6.21094H33.4217H27.9091H27.6602C27.7194 7.16138 27.7787 8.46336 27.7906 9.63515C27.8024 9.70025 27.8143 9.77836 27.8261 9.8044C27.8617 9.90856 27.8973 10.0257 27.9091 10.1429V33.1099C27.8735 33.4744 27.838 33.826 27.7906 34.1905C27.7787 34.3337 27.755 34.477 27.7431 34.6202C27.7313 34.8155 27.7313 35.0108 27.7194 35.2061C27.7906 35.5185 27.8498 35.831 27.8973 36.1435C27.8973 36.1826 27.9091 36.2216 27.9091 36.2477V40.6223H28.0632H33.4217H34.4056C35.9231 40.6223 37.1797 39.2552 37.1797 37.5757V9.25758C37.1797 7.57802 35.9349 6.21094 34.4056 6.21094Z" fill="#229AA0"/>
<path d="M29.2842 40.6379H13.5053C12.6873 40.6379 12.0234 39.9088 12.0234 39.0105V7.85404C12.0234 6.95567 12.6873 6.22656 13.5053 6.22656H29.2961C30.1141 6.22656 30.778 6.95567 30.778 7.85404V39.0105C30.778 39.9088 30.1022 40.6379 29.2842 40.6379Z" fill="#5EC8D3"/>
<path d="M34.6681 26.6618H33.5213C33.241 26.6618 33.0117 26.4099 33.0117 26.1021V18.5597C33.0117 18.2519 33.241 18 33.5213 18H34.6681C34.9484 18 35.1777 18.2519 35.1777 18.5597V26.1021C35.1777 26.4099 34.9484 26.6618 34.6681 26.6618Z" fill="#5EC8D3"/>
<path d="M33.6227 26.6618H33.4081C33.1278 26.6618 32.8984 26.4099 32.8984 26.1021V18.5597C32.8984 18.2519 33.1278 18 33.4081 18H33.6227V26.6618Z" fill="#10004F"/>
<path d="M28.9044 7.67188C28.3946 8.07549 27.9915 8.63534 27.6715 9.22123C27.3632 9.82014 27.138 10.4711 27.0194 11.1351L26.972 11.3825L26.9483 11.5127L26.9365 11.6429C26.9246 11.8122 26.9009 11.9814 26.889 12.1507C26.8772 12.4892 26.8653 12.8277 26.8772 13.1793L26.889 15.2494C26.9127 18.0096 26.9009 20.7698 26.9127 23.543C26.9009 26.3032 26.9009 29.0634 26.889 31.8366L26.8772 33.9068C26.8653 34.5969 26.9365 35.2739 27.055 35.9509C27.2802 37.292 27.7544 38.62 28.5606 39.6876C28.1338 39.1798 27.79 38.5809 27.5292 37.956C27.2684 37.331 27.0669 36.654 26.9365 35.9769C26.806 35.2999 26.7231 34.6099 26.7231 33.9068L26.7112 31.8366C26.6875 29.0764 26.6875 26.3162 26.6875 23.543C26.6994 20.7828 26.6993 18.0226 26.7112 15.2494L26.7231 13.1793C26.7231 12.8407 26.7349 12.4892 26.7586 12.1377C26.7942 11.7861 26.8298 11.4476 26.9127 11.1091C27.055 10.4321 27.2921 9.78108 27.624 9.18217C27.9678 8.59628 28.3828 8.06247 28.9044 7.67188Z" fill="#229AA0"/>
<path d="M26.2598 7.51562C25.7501 7.91924 25.347 8.47909 25.0269 9.06499C24.7187 9.6639 24.4935 10.3149 24.3749 10.9789L24.3275 11.2263L24.3038 11.3565L24.2919 11.4867C24.2801 11.6559 24.2564 11.8252 24.2445 11.9944C24.2326 12.333 24.2208 12.6715 24.2327 13.023L24.2445 15.0932C24.2682 17.8534 24.2564 20.6136 24.2682 23.3868C24.2564 26.147 24.2564 28.9072 24.2445 31.6804L24.2327 33.7506C24.2208 34.4406 24.2919 35.1176 24.4105 35.7947C24.6357 37.1357 25.1099 38.4637 25.9161 39.5314C25.4893 39.0236 25.1455 38.4247 24.8847 37.7997C24.6239 37.1748 24.4223 36.4977 24.2919 35.8207C24.1615 35.1437 24.0785 34.4536 24.0785 33.7506L24.0667 31.6804C24.043 28.9202 24.043 26.16 24.043 23.3868C24.0548 20.6266 24.0548 17.8664 24.0667 15.0932L24.0785 13.023C24.0785 12.6845 24.0904 12.333 24.1141 11.9814C24.1497 11.6299 24.1852 11.2914 24.2682 10.9529C24.4105 10.2758 24.6476 9.62483 24.9795 9.02592C25.3115 8.44003 25.7382 7.8932 26.2598 7.51562Z" fill="#229AA0"/>
<path d="M23.8302 7.75C23.3204 8.15361 22.9173 8.71347 22.5972 9.29936C22.289 9.89827 22.0638 10.5493 21.9452 11.2133L21.8978 11.4606L21.8741 11.5908L21.8622 11.721C21.8504 11.8903 21.8267 12.0596 21.8148 12.2288C21.803 12.5673 21.7911 12.9058 21.803 13.2574L21.8148 15.3275C21.8385 18.0877 21.8267 20.8479 21.8385 23.6212C21.8267 26.3814 21.8267 29.1416 21.8148 31.9148L21.803 33.9849C21.7911 34.675 21.8622 35.352 21.9808 36.029C22.206 37.3701 22.6802 38.6981 23.4864 39.7657C23.0596 39.258 22.7158 38.659 22.455 38.0341C22.1942 37.4091 21.9926 36.7321 21.8622 36.0551C21.7318 35.378 21.6489 34.688 21.6489 33.9849L21.637 31.9148C21.6133 29.1546 21.6133 26.3944 21.6133 23.6212C21.6251 20.861 21.6251 18.1008 21.637 15.3275L21.6489 13.2574C21.6489 12.9189 21.6607 12.5673 21.6844 12.2158C21.72 11.8643 21.7555 11.5257 21.8385 11.1872C21.9808 10.5102 22.2179 9.85921 22.5498 9.2603C22.8818 8.67441 23.3085 8.14059 23.8302 7.75Z" fill="#229AA0"/>
<path d="M21.4005 7.75C20.8907 8.15361 20.4876 8.71347 20.1676 9.29936C19.8593 9.89827 19.6341 10.5493 19.5155 11.2133L19.4681 11.4606L19.4444 11.5908L19.4326 11.721C19.4207 11.8903 19.397 12.0596 19.3851 12.2288C19.3733 12.5673 19.3614 12.9058 19.3733 13.2574L19.3851 15.3275C19.4088 18.0877 19.397 20.8479 19.4088 23.6212C19.397 26.3814 19.397 29.1416 19.3851 31.9148L19.3733 33.9849C19.3614 34.675 19.4326 35.352 19.5511 36.029C19.7763 37.3701 20.2505 38.6981 21.0567 39.7657C20.6299 39.258 20.2861 38.659 20.0253 38.0341C19.7645 37.4091 19.563 36.7321 19.4326 36.0551C19.3021 35.378 19.2192 34.688 19.2192 33.9849L19.2073 31.9148C19.1836 29.1546 19.1836 26.3944 19.1836 23.6212C19.1954 20.861 19.1955 18.1008 19.2073 15.3275L19.2192 13.2574C19.2192 12.9189 19.231 12.5673 19.2547 12.2158C19.2903 11.8643 19.3259 11.5257 19.4088 11.1872C19.5511 10.5102 19.7882 9.85921 20.1201 9.2603C20.4639 8.67441 20.8789 8.14059 21.4005 7.75Z" fill="#229AA0"/>
<path d="M18.7559 7.75C18.2462 8.15361 17.8431 8.71347 17.523 9.29936C17.2148 9.89827 16.9895 10.5493 16.871 11.2133L16.8236 11.4606L16.7999 11.5908L16.788 11.721C16.7762 11.8903 16.7525 12.0596 16.7406 12.2288C16.7287 12.5673 16.7169 12.9058 16.7287 13.2574L16.7406 15.3275C16.7643 18.0877 16.7525 20.8479 16.7643 23.6212C16.7525 26.3814 16.7525 29.1416 16.7406 31.9148L16.7287 33.9849C16.7169 34.675 16.788 35.352 16.9066 36.029C17.1318 37.3701 17.606 38.6981 18.4121 39.7657C17.9854 39.258 17.6416 38.659 17.3808 38.0341C17.12 37.4091 16.9184 36.7321 16.788 36.0551C16.6576 35.378 16.5746 34.688 16.5746 33.9849L16.5628 31.9148C16.5391 29.1546 16.5391 26.3944 16.5391 23.6212C16.5509 20.861 16.5509 18.1008 16.5628 15.3275L16.5746 13.2574C16.5746 12.9189 16.5865 12.5673 16.6102 12.2158C16.6458 11.8643 16.6813 11.5257 16.7643 11.1872C16.9066 10.5102 17.1437 9.85921 17.4756 9.2603C17.8075 8.67441 18.2343 8.14059 18.7559 7.75Z" fill="#229AA0"/>
<path d="M16.0997 7.75C15.5899 8.15361 15.1869 8.71347 14.8668 9.29936C14.5585 9.89827 14.3333 10.5493 14.2147 11.2133L14.1673 11.4606L14.1436 11.5908L14.1318 11.721C14.1199 11.8903 14.0962 12.0596 14.0843 12.2288C14.0725 12.5673 14.0606 12.9058 14.0725 13.2574L14.0843 15.3275C14.1081 18.0877 14.0962 20.8479 14.1081 23.6212C14.0962 26.3814 14.0962 29.1416 14.0843 31.9148L14.0725 33.9849C14.0606 34.675 14.1318 35.352 14.2503 36.029C14.4756 37.3701 14.9498 38.6981 15.7559 39.7657C15.3291 39.258 14.9853 38.659 14.7245 38.0341C14.4637 37.4091 14.2622 36.7321 14.1318 36.0551C14.0014 35.378 13.9184 34.688 13.9184 33.9849L13.9065 31.9148C13.8828 29.1546 13.8828 26.3944 13.8828 23.6212C13.8947 20.861 13.8947 18.1008 13.9065 15.3275L13.9184 13.2574C13.9184 12.9189 13.9302 12.5673 13.9539 12.2158C13.9895 11.8643 14.0251 11.5257 14.1081 11.1872C14.2503 10.5102 14.4874 9.85921 14.8193 9.2603C15.1631 8.67441 15.5781 8.14059 16.0997 7.75Z" fill="#229AA0"/>
</svg>
