<svg width="48" height="48" viewBox="0 0 48 48" fill="none" xmlns="http://www.w3.org/2000/svg">
<path d="M42.6985 34.8605C42.6985 36.6042 34.4832 38.0178 24.3492 38.0178C14.2152 38.0178 6 36.6042 6 34.8605C6 33.1168 11.8799 33.1959 22.0139 33.1959C32.1479 33.1959 42.6985 33.1168 42.6985 34.8605Z" fill="#CDD1F1"/>
<path d="M21.6544 16.0318C21.0467 15.6564 20.135 15.2234 18.9499 14.9635C17.1571 14.5882 15.6681 14.8769 14.878 15.079C14.2703 15.31 13.541 15.6853 12.8421 16.2916C10.5934 18.1972 10.2591 20.9401 10.168 21.7485C10.168 23.0477 10.3503 24.116 10.5326 24.8956C11.2619 27.9271 12.8421 30.0348 13.8145 31.0742C14.6653 31.9981 15.4858 32.6622 16.0935 33.0953C16.2454 32.0559 16.367 31.0165 16.5189 29.9771C17.0963 30.8144 17.1875 31.132 17.0963 31.1897C16.8836 31.3918 15.3338 30.4101 14.2095 29.082C13.0852 27.725 12.6597 26.3392 12.2343 24.9244C12.0216 24.2604 11.8393 23.4808 11.7785 22.528C11.6874 21.2865 11.9 20.6225 11.9912 20.3626C12.1431 19.9295 12.3255 19.5831 12.4774 19.3521C12.6597 18.9479 13.0548 18.2838 13.8145 17.7064C14.7261 17.0134 15.6681 16.8979 16.1543 16.8691C16.6101 16.8113 17.3698 16.7536 18.2206 17.0712C18.8588 17.3022 19.3146 17.6775 19.5577 17.9085C19.5881 17.9373 19.8008 16.9557 21.6544 16.0318Z" fill="#E55CB4"/>
<path d="M26.4588 14.0074C26.4588 14.0074 17.768 13.3145 16.127 25.3542V33.1208C16.127 33.1208 15.6713 35.0841 18.1327 35.3151H20.594L20.3509 24.6612C20.3509 24.6612 20.8068 18.0495 24.8179 15.9707L33.1745 16.6636C33.1745 16.6636 31.4728 14.3827 26.4588 14.0074Z" fill="#F283C5"/>
<path d="M29.253 15.0501C29.9823 15.1367 31.6536 15.3965 33.1426 16.6669C35.2698 18.4859 35.5736 21.1999 35.8471 23.423C35.9991 24.78 35.9079 25.3863 35.8471 27.5229C35.7864 29.3707 35.756 32.0558 35.9383 35.3184C30.5901 35.3184 25.2115 35.3184 19.8633 35.3184C19.8937 33.9036 19.9241 32.2291 19.9545 30.3524C19.9848 28.1581 19.9544 27.3496 20.0152 25.8483C20.1368 23.2498 20.1671 21.9505 20.5318 20.8823C20.8964 19.7563 21.5346 17.7641 23.5402 16.3205C25.9104 14.6459 28.6149 14.9635 29.253 15.0501Z" fill="#E55CB4"/>
<path d="M34.0497 26.768C28.1848 26.768 25.2677 26.7391 23.9002 26.8835C23.6267 26.9412 22.7455 27.1433 22.077 27.9806C21.3477 28.8757 21.3477 29.8573 21.3477 30.1172V35.343H37.1188C36.9061 34.7367 36.9061 34.7367 36.4503 33.4952C36.9061 34.7078 36.9061 34.7078 37.1188 35.343C37.1492 34.3614 37.1188 31.7051 37.058 29.1355C37.058 28.8179 36.9973 28.5003 36.815 28.1827C36.7846 28.0961 36.5718 27.7496 36.1464 27.432C35.3563 26.7968 34.2928 26.768 34.0497 26.768Z" fill="#6617A3"/>
<path d="M19.9824 27.5425C19.5266 27.5136 18.8277 27.4558 18.068 27.1382C17.0956 26.734 16.4574 26.1566 16.1232 25.7812C16.1232 27.9178 16.1232 30.0832 16.1232 32.2198C16.1232 32.2198 15.7281 35.338 17.2779 35.338H20.104L19.9824 27.5425Z" fill="#6617A3"/>
<path d="M31.4987 19.2605C31.4987 19.2605 28.6726 17.4127 24.8438 19.2028C24.8438 19.2028 27.4875 21.4548 31.4987 19.2605Z" fill="#10004F"/>
<path d="M19.1325 17.5537C19.9225 16.4565 21.0773 15.7058 21.0773 15.7058L20.2264 15.3594L18.4336 17.1783L19.1325 17.5537Z" fill="#6617A3"/>
<path d="M34.6301 28.5054C34.6301 28.4766 34.6301 28.4766 34.6002 28.4766C34.5703 28.4766 34.5703 28.4766 34.5703 28.4766C34.5703 28.4766 34.6002 28.4766 34.6301 28.5054Z" fill="#DFE2F6"/>
<path d="M23.8438 28.4732C23.8438 28.4732 23.8438 28.4443 23.8438 28.4732C23.9045 28.4443 23.8741 28.4443 23.8741 28.4154C23.8741 28.3865 23.8742 28.3866 23.9045 28.3866C23.9349 28.3866 23.9957 28.3577 24.0261 28.3866C24.0261 28.3866 24.0565 28.3865 24.0565 28.3577C24.0869 28.3288 24.1476 28.3288 24.178 28.3577H24.2084C24.2692 28.3577 24.2996 28.3577 24.3604 28.3288H24.3907H24.4211C24.4819 28.2999 24.5123 28.2999 24.5731 28.3288C24.6034 28.3288 24.6338 28.3288 24.6642 28.3288C24.6642 28.3288 24.6946 28.3288 24.6946 28.2999H24.725C24.6946 28.3288 24.725 28.3288 24.7554 28.3288C24.8161 28.3288 24.8465 28.3288 24.9073 28.3288C24.9073 28.3288 24.9377 28.3288 24.9073 28.2999H24.9377C24.9985 28.3288 25.0592 28.2999 25.0896 28.2999C25.0896 28.2999 25.12 28.271 25.12 28.2999C25.12 28.271 25.1504 28.2999 25.1504 28.2999C25.1504 28.2999 25.1504 28.2999 25.1808 28.2999C25.1808 28.2999 25.1808 28.2999 25.1504 28.2999H25.1808C25.2416 28.2999 25.272 28.2999 25.3327 28.2999C25.3327 28.2999 25.3024 28.2999 25.3024 28.2711C25.3024 28.2711 25.3327 28.2711 25.3631 28.2711C25.4239 28.2999 25.4543 28.2999 25.5151 28.2711C25.5758 28.2711 25.6062 28.2711 25.667 28.2711C25.7278 28.2711 25.7278 28.3288 25.7885 28.2999H25.7582C25.7886 28.2999 25.7885 28.271 25.8189 28.2999C25.8797 28.2999 25.9405 28.2999 26.0012 28.2711C26.0316 28.2422 26.0924 28.2711 26.1532 28.2422C26.1532 28.2711 26.1532 28.271 26.1836 28.2999C26.2444 28.2999 26.3051 28.2999 26.3659 28.2711C26.4267 28.2711 26.4571 28.2711 26.5179 28.2711C26.5482 28.2999 26.5482 28.2999 26.5786 28.2711H26.609C26.6698 28.2711 26.7002 28.2711 26.7609 28.2711H26.7913H26.7609H26.7913C26.8217 28.2711 26.8521 28.271 26.8825 28.2999C26.9129 28.2999 26.9129 28.3288 26.9129 28.3288C26.9129 28.3577 26.9129 28.3577 26.9433 28.3577C27.0041 28.3577 27.0344 28.3577 27.0952 28.3577C27.1256 28.3577 27.1864 28.3288 27.2167 28.2999L27.2472 28.3288C27.2472 28.3577 27.2775 28.3288 27.3079 28.3288C27.3383 28.3288 27.3079 28.3288 27.3079 28.3288C27.3383 28.3288 27.3383 28.2999 27.3687 28.2999C27.3991 28.2999 27.3991 28.2999 27.4295 28.2999C27.4295 28.2999 27.4295 28.2999 27.4599 28.2999H27.4295C27.4295 28.2999 27.4598 28.2999 27.4902 28.2999C27.5814 28.271 27.5814 28.271 27.6422 28.2999C27.6726 28.2999 27.703 28.2999 27.7333 28.2999H27.7637C27.7637 28.2999 27.7637 28.2999 27.7333 28.2999C27.7333 28.2999 27.7334 28.2999 27.703 28.2999C27.7334 28.2999 27.7941 28.2999 27.8245 28.2999C27.8549 28.3288 27.8853 28.2999 27.8853 28.3288C27.9157 28.3288 27.9157 28.3288 27.946 28.3288C27.946 28.3288 27.9765 28.2999 28.0068 28.3288C28.0372 28.3577 28.098 28.3288 28.098 28.3577C28.098 28.3577 28.1284 28.3577 28.1284 28.3866C28.1587 28.3577 28.1588 28.3577 28.1892 28.3866C28.2195 28.4154 28.2195 28.3866 28.2499 28.3866C28.2803 28.3577 28.3107 28.3577 28.3411 28.3577H28.3715C28.3715 28.3577 28.3715 28.3577 28.3411 28.3577C28.3411 28.3577 28.3411 28.3577 28.3107 28.3577H28.3411C28.3715 28.3577 28.4019 28.3577 28.4019 28.3288C28.4019 28.3288 28.4322 28.2999 28.4322 28.3288C28.4322 28.3288 28.4323 28.3577 28.4626 28.3288C28.493 28.2999 28.493 28.3288 28.5234 28.2999C28.5538 28.2999 28.5842 28.2999 28.6146 28.2999C28.645 28.2999 28.6753 28.2999 28.7361 28.2711C28.7969 28.2422 28.8577 28.2422 28.9185 28.2711C28.9488 28.2711 28.9792 28.2999 29.04 28.2711H29.0704C29.0704 28.2711 29.0704 28.2711 29.04 28.2711C29.0096 28.2711 29.0096 28.271 29.0096 28.2999C29.0096 28.3288 29.04 28.2999 29.04 28.2999C29.1008 28.2999 29.1616 28.2711 29.2223 28.2711C29.2527 28.2711 29.2831 28.2999 29.2831 28.2711C29.3135 28.2711 29.2831 28.2999 29.2831 28.2999C29.2831 28.2999 29.2527 28.3288 29.2831 28.3288C29.3135 28.3288 29.3439 28.3288 29.3743 28.3288C29.4047 28.3288 29.4046 28.3288 29.4046 28.3577C29.4046 28.3577 29.4046 28.3865 29.435 28.3577H29.4654C29.4958 28.3577 29.4958 28.3577 29.4958 28.3288C29.5262 28.3288 29.587 28.2999 29.6173 28.3288C29.6477 28.3288 29.6478 28.3288 29.6781 28.3288C29.7085 28.3288 29.7389 28.2999 29.7389 28.3577C29.7389 28.3577 29.7389 28.3577 29.7389 28.3288C29.7389 28.2999 29.7693 28.2999 29.7997 28.2999H29.8301C29.8605 28.2999 29.8605 28.2999 29.8605 28.3288H29.8908H29.9212V28.3577C29.9516 28.3577 29.982 28.3577 30.0124 28.3577C30.0428 28.3577 30.1036 28.3288 30.134 28.3577C30.1643 28.3577 30.1947 28.3577 30.2251 28.3577C30.2555 28.3577 30.1947 28.3288 30.2251 28.3288H30.2555H30.2859C30.2859 28.2999 30.3163 28.2999 30.3163 28.3288C30.3163 28.3288 30.3163 28.3577 30.3466 28.3288C30.377 28.2999 30.4074 28.2999 30.4378 28.3288C30.4378 28.3288 30.4682 28.3288 30.4986 28.3288C30.529 28.3288 30.5593 28.3288 30.5593 28.3288C30.5897 28.2999 30.6505 28.3288 30.6809 28.3288C30.7113 28.3288 30.7113 28.3288 30.7417 28.2999C30.7721 28.2999 30.8328 28.2999 30.8632 28.3288C30.8936 28.3288 30.8936 28.3288 30.924 28.3288C30.924 28.3288 30.924 28.2999 30.9544 28.3288C30.9544 28.3288 31.0152 28.3577 31.0152 28.3288C31.0152 28.3288 31.0456 28.3288 31.076 28.3288C31.1063 28.3288 31.1367 28.2999 31.1367 28.3577C31.1367 28.3288 31.1671 28.3577 31.1975 28.3288C31.2583 28.3288 31.2887 28.3288 31.3494 28.3577C31.3798 28.3577 31.4406 28.3577 31.471 28.3577C31.471 28.3288 31.5014 28.3577 31.5014 28.3577C31.5622 28.3577 31.5925 28.3577 31.6533 28.3577C31.6533 28.3577 31.6533 28.3577 31.6837 28.3577H31.6533H31.6837C31.7445 28.3288 31.8052 28.3577 31.866 28.3577C31.9268 28.3288 31.9572 28.3577 32.018 28.3288C32.0787 28.3577 32.1699 28.3288 32.2306 28.3288H32.2611C32.2611 28.3288 32.2611 28.3288 32.2914 28.3288C32.3218 28.2999 32.3522 28.3288 32.3826 28.3288C32.413 28.3288 32.413 28.2999 32.4434 28.3288H32.4738C32.5042 28.3288 32.5649 28.2999 32.6257 28.3288C32.6561 28.3577 32.7169 28.3577 32.7473 28.3288C32.7776 28.3288 32.8384 28.3288 32.8992 28.3288C32.9904 28.3288 33.0511 28.3288 33.1423 28.3288C33.1727 28.2999 33.2334 28.2999 33.2638 28.3288C33.355 28.3288 33.4462 28.3288 33.5069 28.3288C33.5677 28.3288 33.6285 28.3288 33.6589 28.3577C33.6589 28.3577 33.6892 28.3577 33.7196 28.3577C33.75 28.3288 33.7804 28.3577 33.7804 28.3577C33.7804 28.3865 33.8108 28.3865 33.8108 28.3577H33.8412C33.8412 28.3577 33.8412 28.3865 33.8412 28.3577C33.8716 28.3288 33.902 28.3577 33.9324 28.3577C33.9628 28.3577 33.9628 28.3865 33.9628 28.3577C33.9628 28.3288 33.9627 28.3577 33.9931 28.3577C34.0539 28.3577 34.0843 28.3577 34.1451 28.3577C34.1755 28.3577 34.2362 28.3577 34.2666 28.3577C34.297 28.3577 34.3274 28.3577 34.3274 28.3577C34.3882 28.3577 34.449 28.3866 34.5401 28.3866C34.5401 28.3866 34.5401 28.3865 34.5705 28.4154C34.5705 28.4443 34.6009 28.4443 34.6313 28.4443C34.6313 28.4443 34.6616 28.4443 34.6616 28.4732C34.6616 28.502 34.6616 28.502 34.6313 28.502C34.5705 28.502 34.5401 28.502 34.4793 28.502C34.4489 28.502 34.4186 28.502 34.3882 28.502H34.3578C34.3578 28.5309 34.3274 28.502 34.3274 28.502C34.2666 28.4732 34.2362 28.502 34.1754 28.502C34.1451 28.502 34.0843 28.502 34.0235 28.502C33.9931 28.502 33.9628 28.502 33.9324 28.502C33.8412 28.502 33.7197 28.502 33.6285 28.502C33.5981 28.502 33.5981 28.502 33.5677 28.502C33.5373 28.502 33.5069 28.502 33.4766 28.502C33.4462 28.502 33.3854 28.502 33.355 28.502C33.3246 28.502 33.3246 28.502 33.2942 28.502C33.2638 28.502 33.2335 28.502 33.2031 28.502C33.1423 28.5309 33.0815 28.502 32.9903 28.502C32.9599 28.502 32.9296 28.502 32.8992 28.502C32.8688 28.502 32.8384 28.502 32.7776 28.502C32.7169 28.502 32.6865 28.4732 32.6257 28.502C32.5649 28.502 32.5345 28.4732 32.5041 28.502C32.4434 28.502 32.413 28.502 32.3522 28.502C32.2914 28.5309 32.261 28.502 32.2003 28.5309C32.1699 28.5309 32.1091 28.5309 32.0787 28.5309C32.0179 28.5309 31.9572 28.5309 31.8964 28.5309C31.866 28.5309 31.8052 28.502 31.7748 28.5309C31.7748 28.502 31.7141 28.5309 31.7141 28.5309C31.6533 28.5309 31.5925 28.502 31.5014 28.5309C31.4406 28.5309 31.3798 28.5309 31.319 28.5309C31.2886 28.5309 31.2279 28.5309 31.1975 28.5309C31.1671 28.5309 31.1367 28.5309 31.1063 28.5309C31.1063 28.5309 31.076 28.5309 31.076 28.502C31.076 28.502 31.0455 28.502 31.0152 28.502C30.9544 28.502 30.8632 28.5309 30.8025 28.502C30.7721 28.502 30.7417 28.502 30.7113 28.502H30.6809C30.6809 28.5309 30.6505 28.5309 30.6505 28.5309H30.6201H30.6505C30.6201 28.5309 30.5897 28.5309 30.5593 28.5309H30.529C30.529 28.5309 30.5594 28.5309 30.529 28.5598C30.4986 28.5598 30.4986 28.5598 30.4986 28.5598H30.4682C30.4378 28.5887 30.377 28.5887 30.3163 28.5598C30.2859 28.5598 30.2555 28.5598 30.1947 28.5598C30.1643 28.5598 30.1643 28.5598 30.134 28.5598C30.134 28.5887 30.1035 28.5598 30.0732 28.5598C30.0124 28.5598 29.9212 28.5598 29.8605 28.5598C29.8301 28.5598 29.7693 28.5309 29.7389 28.5309C29.6781 28.5309 29.6477 28.5309 29.587 28.5309C29.587 28.5309 29.587 28.5309 29.6173 28.5309H29.6477H29.6173C29.4654 28.5309 29.3135 28.5598 29.1312 28.5309C29.0704 28.5309 28.9792 28.5309 28.9185 28.5309C28.8881 28.5309 28.888 28.5598 28.8577 28.5598C28.7969 28.5598 28.7361 28.5598 28.645 28.5598C28.6146 28.5598 28.5538 28.5598 28.5234 28.5598C28.493 28.5598 28.493 28.5598 28.4626 28.5598C28.4019 28.5598 28.3411 28.5598 28.2803 28.5598C28.2499 28.5598 28.2195 28.5598 28.2195 28.5598H28.1892C28.1892 28.5309 28.1588 28.5598 28.1588 28.5598C28.1284 28.5887 28.098 28.5887 28.0676 28.5598C28.0068 28.5598 27.9764 28.5598 27.9157 28.5598C27.9157 28.5598 27.8853 28.5598 27.8549 28.5598C27.8549 28.5887 27.8245 28.5887 27.8245 28.5598C27.7941 28.5598 27.7941 28.5309 27.7637 28.5309C27.703 28.5309 27.6422 28.5309 27.6118 28.5309C27.4902 28.5309 27.3687 28.5309 27.2472 28.5309C27.1864 28.5309 27.0952 28.5309 27.0344 28.5309C27.004 28.5309 26.9433 28.5309 26.9129 28.5309C26.8217 28.5309 26.7609 28.5309 26.6698 28.5309C26.6394 28.5309 26.6394 28.5309 26.609 28.5309C26.5786 28.5309 26.5786 28.5309 26.5482 28.5309C26.5178 28.5598 26.5179 28.5309 26.4875 28.5309C26.4571 28.5309 26.3963 28.5309 26.3659 28.5309C26.2748 28.5309 26.214 28.5309 26.1228 28.5309C26.1228 28.5309 26.0924 28.5309 26.1228 28.502H26.0924C26.0924 28.502 26.062 28.502 26.0924 28.5309C26.062 28.502 26.0013 28.5309 25.9709 28.502C25.8493 28.502 25.7582 28.502 25.6366 28.502H25.6062C25.5455 28.502 25.4847 28.502 25.4543 28.502C25.3935 28.4732 25.3328 28.502 25.272 28.502C25.2416 28.502 25.2112 28.4732 25.1808 28.502C25.1808 28.502 25.1808 28.502 25.1504 28.502C25.12 28.4732 25.0593 28.502 25.0289 28.502C24.9985 28.502 24.9985 28.502 24.9681 28.4732H24.9377C24.8769 28.502 24.7858 28.502 24.725 28.4732C24.6642 28.4443 24.6338 28.4732 24.5731 28.4732C24.5731 28.4732 24.5731 28.4732 24.5427 28.4732C24.5123 28.4443 24.5123 28.4732 24.4819 28.4732C24.4819 28.502 24.4819 28.502 24.4515 28.502H24.4819C24.4819 28.4732 24.4515 28.502 24.4515 28.502C24.3907 28.5309 24.2996 28.502 24.2084 28.502C24.178 28.502 24.178 28.502 24.1476 28.502H24.1172C24.1172 28.4732 24.1172 28.502 24.1172 28.502C24.1476 28.4732 24.1173 28.4732 24.0869 28.4732C24.0869 28.4732 24.1173 28.4732 24.0869 28.502C24.0565 28.502 24.0565 28.502 24.0565 28.4732C24.0261 28.4732 23.9957 28.4732 23.9653 28.4732C23.9045 28.5598 23.8438 28.502 23.8438 28.4732ZM30.8632 28.6175C30.8936 28.6175 30.8936 28.6175 30.8936 28.6175C30.8936 28.6175 30.8936 28.6175 30.8632 28.6175C30.8936 28.6175 30.8632 28.5887 30.8632 28.6175ZM29.9212 28.5887C29.9212 28.5887 29.8908 28.5887 29.9212 28.5887C29.8908 28.5887 29.8908 28.5887 29.9212 28.5887ZM29.8908 28.3866C29.9212 28.3866 29.9212 28.3866 29.9212 28.3866H29.8908ZM29.2223 28.3866C29.2527 28.3866 29.2527 28.3866 29.2527 28.3866C29.2527 28.3577 29.2223 28.3577 29.2223 28.3866ZM28.0372 28.3577C28.0372 28.3865 28.0372 28.3577 28.0372 28.3577C28.0676 28.3577 28.098 28.3577 28.098 28.3577C28.098 28.3577 28.0676 28.3577 28.0372 28.3577ZM25.5759 28.2999C25.5759 28.3288 25.6062 28.2999 25.6062 28.2999H25.6366H25.6062C25.6366 28.3288 25.6062 28.271 25.5759 28.2999ZM25.3935 28.3288H25.4239C25.4239 28.2999 25.3935 28.2999 25.3935 28.3288Z" fill="#DFE2F6"/>
<path d="M25.9077 28.3269C25.9077 28.2973 25.9077 28.2973 25.9077 28.3269C25.9077 28.2973 25.878 28.2973 25.9077 28.3269C25.878 28.3269 25.9077 28.3269 25.9077 28.3269Z" fill="#DFE2F6"/>
<path d="M24.5156 28.3257C24.5156 28.3257 24.5455 28.3257 24.5455 28.2969C24.5455 28.2969 24.5455 28.2969 24.5156 28.3257C24.5455 28.2969 24.5455 28.2969 24.5156 28.3257Z" fill="#DFE2F6"/>
<path d="M27.7027 28.357C27.7027 28.3272 27.7027 28.357 27.7027 28.357C27.672 28.357 27.672 28.3272 27.7027 28.357C27.672 28.357 27.672 28.357 27.7027 28.357Z" fill="#DFE2F6"/>
<path d="M24.6637 28.2969C24.6329 28.2969 24.6329 28.2969 24.6637 28.2969C24.6329 28.2969 24.6329 28.3266 24.6637 28.2969Z" fill="#DFE2F6"/>
<path d="M27.4295 28.6484C27.3985 28.6484 27.3985 28.6484 27.4295 28.6484C27.3985 28.6784 27.4295 28.6784 27.4295 28.6484C27.4295 28.6784 27.4295 28.6784 27.4295 28.6484Z" fill="#DFE2F6"/>
<path d="M29.3436 20.9059L27.3381 17.2969L25.2109 18.3074L27.7027 22.5227L29.7083 21.4834L29.3436 20.9059Z" fill="white"/>
<path d="M31.4729 19.2031C30.9563 19.4918 29.7712 19.8383 28.191 19.8672C26.5197 19.8961 25.365 19.5207 24.8484 19.2031C24.7572 19.7228 24.666 20.3291 24.666 20.9932C24.6357 21.9171 24.7268 22.7255 24.8484 23.3607C25.6384 23.5917 26.702 23.8227 27.9783 23.8516C29.4065 23.8804 30.622 23.6783 31.4729 23.4473C31.5944 22.9854 31.6856 22.4368 31.716 21.8016C31.7768 20.7622 31.6552 19.8383 31.4729 19.2031Z" fill="#6617A3"/>
<path d="M34.6301 33.1461C34.6301 33.1172 34.6301 33.1172 34.6002 33.1172C34.5703 33.1172 34.5703 33.1172 34.5703 33.1172C34.5703 33.1172 34.6002 33.1172 34.6301 33.1461Z" fill="white"/>
<path d="M23.8438 33.1138C23.8438 33.1138 23.8438 33.0849 23.8438 33.1138C23.9045 33.0849 23.8741 33.0849 23.8741 33.056C23.8741 33.0272 23.8742 33.0272 23.9045 33.0272C23.9349 33.0272 23.9957 32.9983 24.0261 33.0272C24.0261 33.0272 24.0565 33.0272 24.0565 32.9983C24.0869 32.9694 24.1476 32.9694 24.178 32.9983H24.2084C24.2692 32.9983 24.2996 32.9983 24.3604 32.9694H24.3907H24.4211C24.4819 32.9406 24.5123 32.9406 24.5731 32.9694C24.6034 32.9694 24.6338 32.9694 24.6642 32.9694C24.6642 32.9694 24.6946 32.9694 24.6946 32.9406H24.725C24.6946 32.9694 24.725 32.9694 24.7554 32.9694C24.8161 32.9694 24.8465 32.9694 24.9073 32.9694C24.9073 32.9694 24.9377 32.9694 24.9073 32.9406H24.9377C24.9985 32.9694 25.0592 32.9406 25.0896 32.9406C25.0896 32.9406 25.12 32.9117 25.12 32.9406C25.12 32.9117 25.1504 32.9406 25.1504 32.9406C25.1504 32.9406 25.1504 32.9406 25.1808 32.9406C25.1808 32.9406 25.1808 32.9406 25.1504 32.9406H25.1808C25.2416 32.9406 25.272 32.9406 25.3327 32.9406C25.3327 32.9406 25.3024 32.9405 25.3024 32.9117C25.3024 32.9117 25.3327 32.9117 25.3631 32.9117C25.4239 32.9405 25.4543 32.9405 25.5151 32.9117C25.5758 32.9117 25.6062 32.9117 25.667 32.9117C25.7278 32.9117 25.7278 32.9694 25.7885 32.9406H25.7582C25.7886 32.9406 25.7885 32.9117 25.8189 32.9406C25.8797 32.9406 25.9405 32.9405 26.0012 32.9117C26.0316 32.8828 26.0924 32.9117 26.1532 32.8828C26.1532 32.9117 26.1532 32.9117 26.1836 32.9406C26.2444 32.9406 26.3051 32.9405 26.3659 32.9117C26.4267 32.9117 26.4571 32.9117 26.5179 32.9117C26.5482 32.9405 26.5482 32.9405 26.5786 32.9117H26.609C26.6698 32.9117 26.7002 32.9117 26.7609 32.9117H26.7913H26.7609H26.7913C26.8217 32.9117 26.8521 32.9117 26.8825 32.9406C26.9129 32.9406 26.9129 32.9694 26.9129 32.9694C26.9129 32.9983 26.9129 32.9983 26.9433 32.9983C27.0041 32.9983 27.0344 32.9983 27.0952 32.9983C27.1256 32.9983 27.1864 32.9694 27.2167 32.9406L27.2472 32.9694C27.2472 32.9983 27.2775 32.9694 27.3079 32.9694C27.3383 32.9694 27.3079 32.9694 27.3079 32.9694C27.3383 32.9694 27.3383 32.9406 27.3687 32.9406C27.3991 32.9406 27.3991 32.9406 27.4295 32.9406C27.4295 32.9406 27.4295 32.9406 27.4599 32.9406H27.4295C27.4295 32.9406 27.4598 32.9406 27.4902 32.9406C27.5814 32.9117 27.5814 32.9117 27.6422 32.9406C27.6726 32.9406 27.703 32.9406 27.7333 32.9406H27.7637C27.7637 32.9406 27.7637 32.9406 27.7333 32.9406C27.7333 32.9406 27.7334 32.9406 27.703 32.9406C27.7334 32.9406 27.7941 32.9406 27.8245 32.9406C27.8549 32.9694 27.8853 32.9406 27.8853 32.9694C27.9157 32.9694 27.9157 32.9694 27.946 32.9694C27.946 32.9694 27.9765 32.9406 28.0068 32.9694C28.0372 32.9983 28.098 32.9694 28.098 32.9983C28.098 32.9983 28.1284 32.9983 28.1284 33.0272C28.1587 32.9983 28.1588 32.9983 28.1892 33.0272C28.2195 33.056 28.2195 33.0272 28.2499 33.0272C28.2803 32.9983 28.3107 32.9983 28.3411 32.9983H28.3715C28.3715 32.9983 28.3715 32.9983 28.3411 32.9983C28.3411 32.9983 28.3411 32.9983 28.3107 32.9983H28.3411C28.3715 32.9983 28.4019 32.9983 28.4019 32.9694C28.4019 32.9694 28.4322 32.9406 28.4322 32.9694C28.4322 32.9694 28.4323 32.9983 28.4626 32.9694C28.493 32.9406 28.493 32.9694 28.5234 32.9406C28.5538 32.9406 28.5842 32.9406 28.6146 32.9406C28.645 32.9406 28.6753 32.9405 28.7361 32.9117C28.7969 32.8828 28.8577 32.8828 28.9185 32.9117C28.9488 32.9117 28.9792 32.9405 29.04 32.9117H29.0704C29.0704 32.9117 29.0704 32.9117 29.04 32.9117C29.0096 32.9117 29.0096 32.9117 29.0096 32.9406C29.0096 32.9694 29.04 32.9406 29.04 32.9406C29.1008 32.9406 29.1616 32.9117 29.2223 32.9117C29.2527 32.9117 29.2831 32.9405 29.2831 32.9117C29.3135 32.9117 29.2831 32.9406 29.2831 32.9406C29.2831 32.9406 29.2527 32.9694 29.2831 32.9694C29.3135 32.9694 29.3439 32.9694 29.3743 32.9694C29.4047 32.9694 29.4046 32.9694 29.4046 32.9983C29.4046 32.9983 29.4046 33.0272 29.435 32.9983H29.4654C29.4958 32.9983 29.4958 32.9983 29.4958 32.9694C29.5262 32.9694 29.587 32.9406 29.6173 32.9694C29.6477 32.9694 29.6478 32.9694 29.6781 32.9694C29.7085 32.9694 29.7389 32.9406 29.7389 32.9983C29.7389 32.9983 29.7389 32.9983 29.7389 32.9694C29.7389 32.9406 29.7693 32.9406 29.7997 32.9406H29.8301C29.8605 32.9406 29.8605 32.9406 29.8605 32.9694H29.8908H29.9212V32.9983C29.9516 32.9983 29.982 32.9983 30.0124 32.9983C30.0428 32.9983 30.1036 32.9694 30.134 32.9983C30.1643 32.9983 30.1947 32.9983 30.2251 32.9983C30.2555 32.9983 30.1947 32.9694 30.2251 32.9694H30.2555H30.2859C30.2859 32.9406 30.3163 32.9406 30.3163 32.9694C30.3163 32.9694 30.3163 32.9983 30.3466 32.9694C30.377 32.9406 30.4074 32.9406 30.4378 32.9694C30.4378 32.9694 30.4682 32.9694 30.4986 32.9694C30.529 32.9694 30.5593 32.9694 30.5593 32.9694C30.5897 32.9406 30.6505 32.9694 30.6809 32.9694C30.7113 32.9694 30.7113 32.9694 30.7417 32.9406C30.7721 32.9406 30.8328 32.9406 30.8632 32.9694C30.8936 32.9694 30.8936 32.9694 30.924 32.9694C30.924 32.9694 30.924 32.9406 30.9544 32.9694C30.9544 32.9694 31.0152 32.9983 31.0152 32.9694C31.0152 32.9694 31.0456 32.9694 31.076 32.9694C31.1063 32.9694 31.1367 32.9406 31.1367 32.9983C31.1367 32.9694 31.1671 32.9983 31.1975 32.9694C31.2583 32.9694 31.2887 32.9694 31.3494 32.9983C31.3798 32.9983 31.4406 32.9983 31.471 32.9983C31.471 32.9694 31.5014 32.9983 31.5014 32.9983C31.5622 32.9983 31.5925 32.9983 31.6533 32.9983C31.6533 32.9983 31.6533 32.9983 31.6837 32.9983H31.6533H31.6837C31.7445 32.9694 31.8052 32.9983 31.866 32.9983C31.9268 32.9694 31.9572 32.9983 32.018 32.9694C32.0787 32.9983 32.1699 32.9694 32.2306 32.9694H32.2611C32.2611 32.9694 32.2611 32.9694 32.2914 32.9694C32.3218 32.9406 32.3522 32.9694 32.3826 32.9694C32.413 32.9694 32.413 32.9406 32.4434 32.9694H32.4738C32.5042 32.9694 32.5649 32.9406 32.6257 32.9694C32.6561 32.9983 32.7169 32.9983 32.7473 32.9694C32.7776 32.9694 32.8384 32.9694 32.8992 32.9694C32.9904 32.9694 33.0511 32.9694 33.1423 32.9694C33.1727 32.9406 33.2334 32.9406 33.2638 32.9694C33.355 32.9694 33.4462 32.9694 33.5069 32.9694C33.5677 32.9694 33.6285 32.9694 33.6589 32.9983C33.6589 32.9983 33.6892 32.9983 33.7196 32.9983C33.75 32.9694 33.7804 32.9983 33.7804 32.9983C33.7804 33.0272 33.8108 33.0272 33.8108 32.9983H33.8412C33.8412 32.9983 33.8412 33.0272 33.8412 32.9983C33.8716 32.9694 33.902 32.9983 33.9324 32.9983C33.9628 32.9983 33.9628 33.0272 33.9628 32.9983C33.9628 32.9694 33.9627 32.9983 33.9931 32.9983C34.0539 32.9983 34.0843 32.9983 34.1451 32.9983C34.1755 32.9983 34.2362 32.9983 34.2666 32.9983C34.297 32.9983 34.3274 32.9983 34.3274 32.9983C34.3882 32.9983 34.449 33.0272 34.5401 33.0272C34.5401 33.0272 34.5401 33.0272 34.5705 33.056C34.5705 33.0849 34.6009 33.0849 34.6313 33.0849C34.6313 33.0849 34.6616 33.0849 34.6616 33.1138C34.6616 33.1426 34.6616 33.1427 34.6313 33.1427C34.5705 33.1427 34.5401 33.1427 34.4793 33.1427C34.4489 33.1427 34.4186 33.1427 34.3882 33.1427H34.3578C34.3578 33.1715 34.3274 33.1427 34.3274 33.1427C34.2666 33.1138 34.2362 33.1427 34.1754 33.1427C34.1451 33.1427 34.0843 33.1427 34.0235 33.1427C33.9931 33.1427 33.9628 33.1427 33.9324 33.1427C33.8412 33.1427 33.7197 33.1427 33.6285 33.1427C33.5981 33.1427 33.5981 33.1427 33.5677 33.1427C33.5373 33.1427 33.5069 33.1427 33.4766 33.1427C33.4462 33.1427 33.3854 33.1427 33.355 33.1427C33.3246 33.1427 33.3246 33.1427 33.2942 33.1427C33.2638 33.1427 33.2335 33.1427 33.2031 33.1427C33.1423 33.1715 33.0815 33.1427 32.9903 33.1427C32.9599 33.1427 32.9296 33.1427 32.8992 33.1427C32.8688 33.1427 32.8384 33.1427 32.7776 33.1427C32.7169 33.1427 32.6865 33.1138 32.6257 33.1427C32.5649 33.1427 32.5345 33.1138 32.5041 33.1427C32.4434 33.1427 32.413 33.1427 32.3522 33.1427C32.2914 33.1715 32.261 33.1427 32.2003 33.1715C32.1699 33.1715 32.1091 33.1715 32.0787 33.1715C32.0179 33.1715 31.9572 33.1715 31.8964 33.1715C31.866 33.1715 31.8052 33.1427 31.7748 33.1715C31.7748 33.1427 31.7141 33.1715 31.7141 33.1715C31.6533 33.1715 31.5925 33.1427 31.5014 33.1715C31.4406 33.1715 31.3798 33.1715 31.319 33.1715C31.2886 33.1715 31.2279 33.1715 31.1975 33.1715C31.1671 33.1715 31.1367 33.1715 31.1063 33.1715C31.1063 33.1715 31.076 33.1715 31.076 33.1427C31.076 33.1427 31.0455 33.1427 31.0152 33.1427C30.9544 33.1427 30.8632 33.1715 30.8025 33.1427C30.7721 33.1427 30.7417 33.1427 30.7113 33.1427H30.6809C30.6809 33.1715 30.6505 33.1715 30.6505 33.1715H30.6201H30.6505C30.6201 33.1715 30.5897 33.1715 30.5593 33.1715H30.529C30.529 33.1715 30.5594 33.1715 30.529 33.2004C30.4986 33.2004 30.4986 33.2004 30.4986 33.2004H30.4682C30.4378 33.2293 30.377 33.2293 30.3163 33.2004C30.2859 33.2004 30.2555 33.2004 30.1947 33.2004C30.1643 33.2004 30.1643 33.2004 30.134 33.2004C30.134 33.2293 30.1035 33.2004 30.0732 33.2004C30.0124 33.2004 29.9212 33.2004 29.8605 33.2004C29.8301 33.2004 29.7693 33.1715 29.7389 33.1715C29.6781 33.1715 29.6477 33.1715 29.587 33.1715C29.587 33.1715 29.587 33.1715 29.6173 33.1715H29.6477H29.6173C29.4654 33.1715 29.3135 33.1715 29.1312 33.1715C29.0704 33.1715 28.9792 33.1715 28.9185 33.1715C28.8881 33.1715 28.888 33.2004 28.8577 33.2004C28.7969 33.2004 28.7361 33.2004 28.645 33.2004C28.6146 33.2004 28.5538 33.2004 28.5234 33.2004C28.493 33.2004 28.493 33.2004 28.4626 33.2004C28.4019 33.2004 28.3411 33.2004 28.2803 33.2004C28.2499 33.2004 28.2195 33.2004 28.2195 33.2004H28.1892C28.1892 33.1715 28.1588 33.2004 28.1588 33.2004C28.1284 33.2293 28.098 33.2293 28.0676 33.2004C28.0068 33.2004 27.9764 33.2004 27.9157 33.2004C27.9157 33.2004 27.8853 33.2004 27.8549 33.2004C27.8549 33.2293 27.8245 33.2293 27.8245 33.2004C27.7941 33.2004 27.7941 33.1715 27.7637 33.1715C27.703 33.1715 27.6422 33.1715 27.6118 33.1715C27.4902 33.1715 27.3687 33.1715 27.2472 33.1715C27.1864 33.1715 27.0952 33.1715 27.0344 33.1715C27.004 33.1715 26.9433 33.1715 26.9129 33.1715C26.8217 33.1715 26.7609 33.1715 26.6698 33.1715C26.6394 33.1715 26.6394 33.1715 26.609 33.1715C26.5786 33.1715 26.5786 33.1715 26.5482 33.1715C26.5178 33.2004 26.5179 33.1715 26.4875 33.1715C26.4571 33.1715 26.3963 33.1715 26.3659 33.1715C26.2748 33.1715 26.214 33.1715 26.1228 33.1715C26.1228 33.1715 26.0924 33.1715 26.1228 33.1427H26.0924C26.0924 33.1427 26.062 33.1427 26.0924 33.1715C26.062 33.1427 26.0013 33.1715 25.9709 33.1427C25.8493 33.1427 25.7582 33.1427 25.6366 33.1427H25.6062C25.5455 33.1427 25.4847 33.1427 25.4543 33.1427C25.3935 33.1138 25.3328 33.1427 25.272 33.1427C25.2416 33.1427 25.2112 33.1138 25.1808 33.1427C25.1808 33.1427 25.1808 33.1427 25.1504 33.1427C25.12 33.1138 25.0593 33.1427 25.0289 33.1427C24.9985 33.1427 24.9985 33.1426 24.9681 33.1138H24.9377C24.8769 33.1426 24.7858 33.1426 24.725 33.1138C24.6642 33.0849 24.6338 33.1138 24.5731 33.1138C24.5731 33.1138 24.5731 33.1138 24.5427 33.1138C24.5123 33.0849 24.5123 33.1138 24.4819 33.1138C24.4819 33.1426 24.4819 33.1427 24.4515 33.1427H24.4819C24.4819 33.1138 24.4515 33.1427 24.4515 33.1427C24.3907 33.1715 24.2996 33.1427 24.2084 33.1427C24.178 33.1427 24.178 33.1427 24.1476 33.1427H24.1172C24.1172 33.1138 24.1172 33.1427 24.1172 33.1427C24.1476 33.1138 24.1173 33.1138 24.0869 33.1138C24.0869 33.1138 24.1173 33.1138 24.0869 33.1427C24.0565 33.1427 24.0565 33.1426 24.0565 33.1138C24.0261 33.1138 23.9957 33.1138 23.9653 33.1138C23.9045 33.2004 23.8438 33.1426 23.8438 33.1138ZM30.8632 33.2581C30.8936 33.2581 30.8936 33.2581 30.8936 33.2581C30.8936 33.2581 30.8936 33.2581 30.8632 33.2581C30.8936 33.2581 30.8632 33.2293 30.8632 33.2581ZM29.9212 33.2293C29.9212 33.2293 29.8908 33.2293 29.9212 33.2293C29.8908 33.2293 29.8908 33.2293 29.9212 33.2293ZM29.8908 33.0272C29.9212 33.0272 29.9212 33.0272 29.9212 33.0272H29.8908ZM29.2223 33.0272C29.2527 33.0272 29.2527 33.0272 29.2527 33.0272C29.2527 32.9983 29.2223 32.9983 29.2223 33.0272ZM28.0372 32.9983C28.0372 33.0272 28.0372 32.9983 28.0372 32.9983C28.0676 32.9983 28.098 32.9983 28.098 32.9983C28.098 32.9983 28.0676 32.9983 28.0372 32.9983ZM25.5759 32.9406C25.5759 32.9694 25.6062 32.9406 25.6062 32.9406H25.6366H25.6062C25.6366 32.9694 25.6062 32.9117 25.5759 32.9406ZM25.3935 32.9694H25.4239C25.4239 32.9406 25.3935 32.9406 25.3935 32.9694Z" fill="white"/>
<path d="M25.9079 32.9678C25.9079 32.9378 25.9079 32.9378 25.9079 32.9678C25.9079 32.9378 25.8778 32.9378 25.9079 32.9678C25.8778 32.9678 25.9079 32.9678 25.9079 32.9678Z" fill="white"/>
<path d="M24.5156 32.9664C24.5156 32.9664 24.5455 32.9664 24.5455 32.9375C24.5455 32.9375 24.5455 32.9375 24.5156 32.9664C24.5455 32.9375 24.5455 32.9375 24.5156 32.9664Z" fill="white"/>
<path d="M27.7027 32.9976C27.7027 32.9679 27.7027 32.9976 27.7027 32.9976C27.672 32.9976 27.672 32.9679 27.7027 32.9976C27.672 32.9976 27.672 32.9976 27.7027 32.9976Z" fill="white"/>
<path d="M23.9961 33.2266C23.9961 33.2266 23.9961 33.2555 23.9961 33.2266C24.026 33.2266 24.026 33.2266 24.026 33.2266C24.026 33.2266 24.026 33.2266 23.9961 33.2266Z" fill="white"/>
<path d="M24.6637 32.9375C24.6329 32.9375 24.6329 32.9375 24.6637 32.9375C24.6329 32.9375 24.6329 32.9671 24.6637 32.9375Z" fill="white"/>
<path d="M27.4295 33.2891C27.3985 33.2891 27.3985 33.2891 27.4295 33.2891C27.3985 33.3191 27.4295 33.3191 27.4295 33.2891C27.4295 33.3191 27.4295 33.3191 27.4295 33.2891Z" fill="white"/>
<path d="M34.6301 33.1461C34.6301 33.1172 34.6301 33.1172 34.6002 33.1172C34.5703 33.1172 34.5703 33.1172 34.5703 33.1172C34.5703 33.1172 34.6002 33.1172 34.6301 33.1461Z" fill="#DFE2F6"/>
<path d="M23.8438 33.1138C23.8438 33.1138 23.8438 33.0849 23.8438 33.1138C23.9045 33.0849 23.8741 33.0849 23.8741 33.056C23.8741 33.0272 23.8742 33.0272 23.9045 33.0272C23.9349 33.0272 23.9957 32.9983 24.0261 33.0272C24.0261 33.0272 24.0565 33.0272 24.0565 32.9983C24.0869 32.9694 24.1476 32.9694 24.178 32.9983H24.2084C24.2692 32.9983 24.2996 32.9983 24.3604 32.9694H24.3907H24.4211C24.4819 32.9406 24.5123 32.9406 24.5731 32.9694C24.6034 32.9694 24.6338 32.9694 24.6642 32.9694C24.6642 32.9694 24.6946 32.9694 24.6946 32.9406H24.725C24.6946 32.9694 24.725 32.9694 24.7554 32.9694C24.8161 32.9694 24.8465 32.9694 24.9073 32.9694C24.9073 32.9694 24.9377 32.9694 24.9073 32.9406H24.9377C24.9985 32.9694 25.0592 32.9406 25.0896 32.9406C25.0896 32.9406 25.12 32.9117 25.12 32.9406C25.12 32.9117 25.1504 32.9406 25.1504 32.9406C25.1504 32.9406 25.1504 32.9406 25.1808 32.9406C25.1808 32.9406 25.1808 32.9406 25.1504 32.9406H25.1808C25.2416 32.9406 25.272 32.9406 25.3327 32.9406C25.3327 32.9406 25.3024 32.9405 25.3024 32.9117C25.3024 32.9117 25.3327 32.9117 25.3631 32.9117C25.4239 32.9405 25.4543 32.9405 25.5151 32.9117C25.5758 32.9117 25.6062 32.9117 25.667 32.9117C25.7278 32.9117 25.7278 32.9694 25.7885 32.9406H25.7582C25.7886 32.9406 25.7885 32.9117 25.8189 32.9406C25.8797 32.9406 25.9405 32.9405 26.0012 32.9117C26.0316 32.8828 26.0924 32.9117 26.1532 32.8828C26.1532 32.9117 26.1532 32.9117 26.1836 32.9406C26.2444 32.9406 26.3051 32.9405 26.3659 32.9117C26.4267 32.9117 26.4571 32.9117 26.5179 32.9117C26.5482 32.9405 26.5482 32.9405 26.5786 32.9117H26.609C26.6698 32.9117 26.7002 32.9117 26.7609 32.9117H26.7913H26.7609H26.7913C26.8217 32.9117 26.8521 32.9117 26.8825 32.9406C26.9129 32.9406 26.9129 32.9694 26.9129 32.9694C26.9129 32.9983 26.9129 32.9983 26.9433 32.9983C27.0041 32.9983 27.0344 32.9983 27.0952 32.9983C27.1256 32.9983 27.1864 32.9694 27.2167 32.9406L27.2472 32.9694C27.2472 32.9983 27.2775 32.9694 27.3079 32.9694C27.3383 32.9694 27.3079 32.9694 27.3079 32.9694C27.3383 32.9694 27.3383 32.9406 27.3687 32.9406C27.3991 32.9406 27.3991 32.9406 27.4295 32.9406C27.4295 32.9406 27.4295 32.9406 27.4599 32.9406H27.4295C27.4295 32.9406 27.4598 32.9406 27.4902 32.9406C27.5814 32.9117 27.5814 32.9117 27.6422 32.9406C27.6726 32.9406 27.703 32.9406 27.7333 32.9406H27.7637C27.7637 32.9406 27.7637 32.9406 27.7333 32.9406C27.7333 32.9406 27.7334 32.9406 27.703 32.9406C27.7334 32.9406 27.7941 32.9406 27.8245 32.9406C27.8549 32.9694 27.8853 32.9406 27.8853 32.9694C27.9157 32.9694 27.9157 32.9694 27.946 32.9694C27.946 32.9694 27.9765 32.9406 28.0068 32.9694C28.0372 32.9983 28.098 32.9694 28.098 32.9983C28.098 32.9983 28.1284 32.9983 28.1284 33.0272C28.1587 32.9983 28.1588 32.9983 28.1892 33.0272C28.2195 33.056 28.2195 33.0272 28.2499 33.0272C28.2803 32.9983 28.3107 32.9983 28.3411 32.9983H28.3715C28.3715 32.9983 28.3715 32.9983 28.3411 32.9983C28.3411 32.9983 28.3411 32.9983 28.3107 32.9983H28.3411C28.3715 32.9983 28.4019 32.9983 28.4019 32.9694C28.4019 32.9694 28.4322 32.9406 28.4322 32.9694C28.4322 32.9694 28.4323 32.9983 28.4626 32.9694C28.493 32.9406 28.493 32.9694 28.5234 32.9406C28.5538 32.9406 28.5842 32.9406 28.6146 32.9406C28.645 32.9406 28.6753 32.9405 28.7361 32.9117C28.7969 32.8828 28.8577 32.8828 28.9185 32.9117C28.9488 32.9117 28.9792 32.9405 29.04 32.9117H29.0704C29.0704 32.9117 29.0704 32.9117 29.04 32.9117C29.0096 32.9117 29.0096 32.9117 29.0096 32.9406C29.0096 32.9694 29.04 32.9406 29.04 32.9406C29.1008 32.9406 29.1616 32.9117 29.2223 32.9117C29.2527 32.9117 29.2831 32.9405 29.2831 32.9117C29.3135 32.9117 29.2831 32.9406 29.2831 32.9406C29.2831 32.9406 29.2527 32.9694 29.2831 32.9694C29.3135 32.9694 29.3439 32.9694 29.3743 32.9694C29.4047 32.9694 29.4046 32.9694 29.4046 32.9983C29.4046 32.9983 29.4046 33.0272 29.435 32.9983H29.4654C29.4958 32.9983 29.4958 32.9983 29.4958 32.9694C29.5262 32.9694 29.587 32.9406 29.6173 32.9694C29.6477 32.9694 29.6478 32.9694 29.6781 32.9694C29.7085 32.9694 29.7389 32.9406 29.7389 32.9983C29.7389 32.9983 29.7389 32.9983 29.7389 32.9694C29.7389 32.9406 29.7693 32.9406 29.7997 32.9406H29.8301C29.8605 32.9406 29.8605 32.9406 29.8605 32.9694H29.8908H29.9212V32.9983C29.9516 32.9983 29.982 32.9983 30.0124 32.9983C30.0428 32.9983 30.1036 32.9694 30.134 32.9983C30.1643 32.9983 30.1947 32.9983 30.2251 32.9983C30.2555 32.9983 30.1947 32.9694 30.2251 32.9694H30.2555H30.2859C30.2859 32.9406 30.3163 32.9406 30.3163 32.9694C30.3163 32.9694 30.3163 32.9983 30.3466 32.9694C30.377 32.9406 30.4074 32.9406 30.4378 32.9694C30.4378 32.9694 30.4682 32.9694 30.4986 32.9694C30.529 32.9694 30.5593 32.9694 30.5593 32.9694C30.5897 32.9406 30.6505 32.9694 30.6809 32.9694C30.7113 32.9694 30.7113 32.9694 30.7417 32.9406C30.7721 32.9406 30.8328 32.9406 30.8632 32.9694C30.8936 32.9694 30.8936 32.9694 30.924 32.9694C30.924 32.9694 30.924 32.9406 30.9544 32.9694C30.9544 32.9694 31.0152 32.9983 31.0152 32.9694C31.0152 32.9694 31.0456 32.9694 31.076 32.9694C31.1063 32.9694 31.1367 32.9406 31.1367 32.9983C31.1367 32.9694 31.1671 32.9983 31.1975 32.9694C31.2583 32.9694 31.2887 32.9694 31.3494 32.9983C31.3798 32.9983 31.4406 32.9983 31.471 32.9983C31.471 32.9694 31.5014 32.9983 31.5014 32.9983C31.5622 32.9983 31.5925 32.9983 31.6533 32.9983C31.6533 32.9983 31.6533 32.9983 31.6837 32.9983H31.6533H31.6837C31.7445 32.9694 31.8052 32.9983 31.866 32.9983C31.9268 32.9694 31.9572 32.9983 32.018 32.9694C32.0787 32.9983 32.1699 32.9694 32.2306 32.9694H32.2611C32.2611 32.9694 32.2611 32.9694 32.2914 32.9694C32.3218 32.9406 32.3522 32.9694 32.3826 32.9694C32.413 32.9694 32.413 32.9406 32.4434 32.9694H32.4738C32.5042 32.9694 32.5649 32.9406 32.6257 32.9694C32.6561 32.9983 32.7169 32.9983 32.7473 32.9694C32.7776 32.9694 32.8384 32.9694 32.8992 32.9694C32.9904 32.9694 33.0511 32.9694 33.1423 32.9694C33.1727 32.9406 33.2334 32.9406 33.2638 32.9694C33.355 32.9694 33.4462 32.9694 33.5069 32.9694C33.5677 32.9694 33.6285 32.9694 33.6589 32.9983C33.6589 32.9983 33.6892 32.9983 33.7196 32.9983C33.75 32.9694 33.7804 32.9983 33.7804 32.9983C33.7804 33.0272 33.8108 33.0272 33.8108 32.9983H33.8412C33.8412 32.9983 33.8412 33.0272 33.8412 32.9983C33.8716 32.9694 33.902 32.9983 33.9324 32.9983C33.9628 32.9983 33.9628 33.0272 33.9628 32.9983C33.9628 32.9694 33.9627 32.9983 33.9931 32.9983C34.0539 32.9983 34.0843 32.9983 34.1451 32.9983C34.1755 32.9983 34.2362 32.9983 34.2666 32.9983C34.297 32.9983 34.3274 32.9983 34.3274 32.9983C34.3882 32.9983 34.449 33.0272 34.5401 33.0272C34.5401 33.0272 34.5401 33.0272 34.5705 33.056C34.5705 33.0849 34.6009 33.0849 34.6313 33.0849C34.6313 33.0849 34.6616 33.0849 34.6616 33.1138C34.6616 33.1426 34.6616 33.1427 34.6313 33.1427C34.5705 33.1427 34.5401 33.1427 34.4793 33.1427C34.4489 33.1427 34.4186 33.1427 34.3882 33.1427H34.3578C34.3578 33.1715 34.3274 33.1427 34.3274 33.1427C34.2666 33.1138 34.2362 33.1427 34.1754 33.1427C34.1451 33.1427 34.0843 33.1427 34.0235 33.1427C33.9931 33.1427 33.9628 33.1427 33.9324 33.1427C33.8412 33.1427 33.7197 33.1427 33.6285 33.1427C33.5981 33.1427 33.5981 33.1427 33.5677 33.1427C33.5373 33.1427 33.5069 33.1427 33.4766 33.1427C33.4462 33.1427 33.3854 33.1427 33.355 33.1427C33.3246 33.1427 33.3246 33.1427 33.2942 33.1427C33.2638 33.1427 33.2335 33.1427 33.2031 33.1427C33.1423 33.1715 33.0815 33.1427 32.9903 33.1427C32.9599 33.1427 32.9296 33.1427 32.8992 33.1427C32.8688 33.1427 32.8384 33.1427 32.7776 33.1427C32.7169 33.1427 32.6865 33.1138 32.6257 33.1427C32.5649 33.1427 32.5345 33.1138 32.5041 33.1427C32.4434 33.1427 32.413 33.1427 32.3522 33.1427C32.2914 33.1715 32.261 33.1427 32.2003 33.1715C32.1699 33.1715 32.1091 33.1715 32.0787 33.1715C32.0179 33.1715 31.9572 33.1715 31.8964 33.1715C31.866 33.1715 31.8052 33.1427 31.7748 33.1715C31.7748 33.1427 31.7141 33.1715 31.7141 33.1715C31.6533 33.1715 31.5925 33.1427 31.5014 33.1715C31.4406 33.1715 31.3798 33.1715 31.319 33.1715C31.2886 33.1715 31.2279 33.1715 31.1975 33.1715C31.1671 33.1715 31.1367 33.1715 31.1063 33.1715C31.1063 33.1715 31.076 33.1715 31.076 33.1427C31.076 33.1427 31.0455 33.1427 31.0152 33.1427C30.9544 33.1427 30.8632 33.1715 30.8025 33.1427C30.7721 33.1427 30.7417 33.1427 30.7113 33.1427H30.6809C30.6809 33.1715 30.6505 33.1715 30.6505 33.1715H30.6201H30.6505C30.6201 33.1715 30.5897 33.1715 30.5593 33.1715H30.529C30.529 33.1715 30.5594 33.1715 30.529 33.2004C30.4986 33.2004 30.4986 33.2004 30.4986 33.2004H30.4682C30.4378 33.2293 30.377 33.2293 30.3163 33.2004C30.2859 33.2004 30.2555 33.2004 30.1947 33.2004C30.1643 33.2004 30.1643 33.2004 30.134 33.2004C30.134 33.2293 30.1035 33.2004 30.0732 33.2004C30.0124 33.2004 29.9212 33.2004 29.8605 33.2004C29.8301 33.2004 29.7693 33.1715 29.7389 33.1715C29.6781 33.1715 29.6477 33.1715 29.587 33.1715C29.587 33.1715 29.587 33.1715 29.6173 33.1715H29.6477H29.6173C29.4654 33.1715 29.3135 33.1715 29.1312 33.1715C29.0704 33.1715 28.9792 33.1715 28.9185 33.1715C28.8881 33.1715 28.888 33.2004 28.8577 33.2004C28.7969 33.2004 28.7361 33.2004 28.645 33.2004C28.6146 33.2004 28.5538 33.2004 28.5234 33.2004C28.493 33.2004 28.493 33.2004 28.4626 33.2004C28.4019 33.2004 28.3411 33.2004 28.2803 33.2004C28.2499 33.2004 28.2195 33.2004 28.2195 33.2004H28.1892C28.1892 33.1715 28.1588 33.2004 28.1588 33.2004C28.1284 33.2293 28.098 33.2293 28.0676 33.2004C28.0068 33.2004 27.9764 33.2004 27.9157 33.2004C27.9157 33.2004 27.8853 33.2004 27.8549 33.2004C27.8549 33.2293 27.8245 33.2293 27.8245 33.2004C27.7941 33.2004 27.7941 33.1715 27.7637 33.1715C27.703 33.1715 27.6422 33.1715 27.6118 33.1715C27.4902 33.1715 27.3687 33.1715 27.2472 33.1715C27.1864 33.1715 27.0952 33.1715 27.0344 33.1715C27.004 33.1715 26.9433 33.1715 26.9129 33.1715C26.8217 33.1715 26.7609 33.1715 26.6698 33.1715C26.6394 33.1715 26.6394 33.1715 26.609 33.1715C26.5786 33.1715 26.5786 33.1715 26.5482 33.1715C26.5178 33.2004 26.5179 33.1715 26.4875 33.1715C26.4571 33.1715 26.3963 33.1715 26.3659 33.1715C26.2748 33.1715 26.214 33.1715 26.1228 33.1715C26.1228 33.1715 26.0924 33.1715 26.1228 33.1427H26.0924C26.0924 33.1427 26.062 33.1427 26.0924 33.1715C26.062 33.1427 26.0013 33.1715 25.9709 33.1427C25.8493 33.1427 25.7582 33.1427 25.6366 33.1427H25.6062C25.5455 33.1427 25.4847 33.1427 25.4543 33.1427C25.3935 33.1138 25.3328 33.1427 25.272 33.1427C25.2416 33.1427 25.2112 33.1138 25.1808 33.1427C25.1808 33.1427 25.1808 33.1427 25.1504 33.1427C25.12 33.1138 25.0593 33.1427 25.0289 33.1427C24.9985 33.1427 24.9985 33.1426 24.9681 33.1138H24.9377C24.8769 33.1426 24.7858 33.1426 24.725 33.1138C24.6642 33.0849 24.6338 33.1138 24.5731 33.1138C24.5731 33.1138 24.5731 33.1138 24.5427 33.1138C24.5123 33.0849 24.5123 33.1138 24.4819 33.1138C24.4819 33.1426 24.4819 33.1427 24.4515 33.1427H24.4819C24.4819 33.1138 24.4515 33.1427 24.4515 33.1427C24.3907 33.1715 24.2996 33.1427 24.2084 33.1427C24.178 33.1427 24.178 33.1427 24.1476 33.1427H24.1172C24.1172 33.1138 24.1172 33.1427 24.1172 33.1427C24.1476 33.1138 24.1173 33.1138 24.0869 33.1138C24.0869 33.1138 24.1173 33.1138 24.0869 33.1427C24.0565 33.1427 24.0565 33.1426 24.0565 33.1138C24.0261 33.1138 23.9957 33.1138 23.9653 33.1138C23.9045 33.2004 23.8438 33.1426 23.8438 33.1138ZM30.8632 33.2581C30.8936 33.2581 30.8936 33.2581 30.8936 33.2581C30.8936 33.2581 30.8936 33.2581 30.8632 33.2581C30.8936 33.2581 30.8632 33.2293 30.8632 33.2581ZM29.9212 33.2293C29.9212 33.2293 29.8908 33.2293 29.9212 33.2293C29.8908 33.2293 29.8908 33.2293 29.9212 33.2293ZM29.8908 33.0272C29.9212 33.0272 29.9212 33.0272 29.9212 33.0272H29.8908ZM29.2223 33.0272C29.2527 33.0272 29.2527 33.0272 29.2527 33.0272C29.2527 32.9983 29.2223 32.9983 29.2223 33.0272ZM28.0372 32.9983C28.0372 33.0272 28.0372 32.9983 28.0372 32.9983C28.0676 32.9983 28.098 32.9983 28.098 32.9983C28.098 32.9983 28.0676 32.9983 28.0372 32.9983ZM25.5759 32.9406C25.5759 32.9694 25.6062 32.9406 25.6062 32.9406H25.6366H25.6062C25.6366 32.9694 25.6062 32.9117 25.5759 32.9406ZM25.3935 32.9694H25.4239C25.4239 32.9406 25.3935 32.9406 25.3935 32.9694Z" fill="#DFE2F6"/>
<path d="M25.9079 32.9678C25.9079 32.9378 25.9079 32.9378 25.9079 32.9678C25.9079 32.9378 25.8778 32.9378 25.9079 32.9678C25.8778 32.9678 25.9079 32.9678 25.9079 32.9678Z" fill="#DFE2F6"/>
<path d="M24.5156 32.9664C24.5156 32.9664 24.5455 32.9664 24.5455 32.9375C24.5455 32.9375 24.5455 32.9375 24.5156 32.9664C24.5455 32.9375 24.5455 32.9375 24.5156 32.9664Z" fill="#DFE2F6"/>
<path d="M27.7027 32.9976C27.7027 32.9679 27.7027 32.9976 27.7027 32.9976C27.672 32.9976 27.672 32.9679 27.7027 32.9976C27.672 32.9976 27.672 32.9976 27.7027 32.9976Z" fill="#DFE2F6"/>
<path d="M23.9961 33.2266C23.9961 33.2266 23.9961 33.2555 23.9961 33.2266C24.026 33.2266 24.026 33.2266 24.026 33.2266C24.026 33.2266 24.026 33.2266 23.9961 33.2266Z" fill="#DFE2F6"/>
<path d="M24.6637 32.9375C24.6329 32.9375 24.6329 32.9375 24.6637 32.9375C24.6329 32.9375 24.6329 32.9671 24.6637 32.9375Z" fill="#DFE2F6"/>
<path d="M27.4295 33.2891C27.3985 33.2891 27.3985 33.2891 27.4295 33.2891C27.3985 33.3191 27.4295 33.3191 27.4295 33.2891C27.4295 33.3191 27.4295 33.3191 27.4295 33.2891Z" fill="#DFE2F6"/>
</svg>
