<svg width="28" height="44" viewBox="0 0 28 44" fill="none" xmlns="http://www.w3.org/2000/svg">
<ellipse cx="13.9147" cy="41.4104" rx="13.3913" ry="2.07059" fill="#F3F2F6"/>
<path d="M22.2688 40.3204C22.1411 40.1943 21.9814 39.9993 21.8644 39.7356C21.609 39.1394 21.726 38.5661 21.46 38.4514C21.4174 38.4285 21.3536 38.417 21.2578 38.4514C21.2578 39.3114 21.2578 40.1713 21.2578 41.0313C21.2578 41.0313 21.7686 40.0911 22.2688 40.3204Z" fill="#303030"/>
<path d="M22.2688 42.0858C22.8271 42.0858 23.2797 41.6084 23.2797 41.0195C23.2797 40.4305 22.8271 39.9531 22.2688 39.9531C21.7104 39.9531 21.2578 40.4305 21.2578 41.0195C21.2578 41.6084 21.7104 42.0858 22.2688 42.0858Z" fill="#303030"/>
<path d="M22.2677 41.4422C22.491 41.4422 22.672 41.2523 22.672 41.018C22.672 40.7837 22.491 40.5938 22.2677 40.5938C22.0443 40.5938 21.8633 40.7837 21.8633 41.018C21.8633 41.2523 22.0443 41.4422 22.2677 41.4422Z" fill="#B8B8B8"/>
<path d="M17.8977 40.3204C17.77 40.1943 17.6103 39.9993 17.4933 39.7356C17.2379 39.1394 17.3549 38.5661 17.0889 38.4514C17.0463 38.4285 16.9825 38.417 16.8867 38.4514C16.8867 39.3114 16.8867 40.1713 16.8867 41.0313C16.8867 41.0313 17.3869 40.0911 17.8977 40.3204Z" fill="#303030"/>
<path d="M17.8977 42.0858C18.456 42.0858 18.9086 41.6084 18.9086 41.0195C18.9086 40.4305 18.456 39.9531 17.8977 39.9531C17.3393 39.9531 16.8867 40.4305 16.8867 41.0195C16.8867 41.6084 17.3393 42.0858 17.8977 42.0858Z" fill="#303030"/>
<path d="M17.8966 41.4422C18.1199 41.4422 18.3009 41.2523 18.3009 41.018C18.3009 40.7837 18.1199 40.5938 17.8966 40.5938C17.6732 40.5938 17.4922 40.7837 17.4922 41.018C17.4922 41.2523 17.6732 41.4422 17.8966 41.4422Z" fill="#B8B8B8"/>
<path d="M5.98828 40.379C6.11598 40.2529 6.2756 40.0579 6.38202 39.7942C6.63742 39.198 6.52036 38.6247 6.77576 38.51C6.81832 38.4871 6.88217 38.4756 6.97794 38.51C6.97794 39.37 6.97794 40.2299 6.97794 41.0899C6.97794 41.0899 6.47779 40.1497 5.98828 40.379Z" fill="#303030"/>
<path d="M5.98966 42.1327C6.53624 42.1327 6.97933 41.6553 6.97933 41.0664C6.97933 40.4774 6.53624 40 5.98966 40C5.44309 40 5 40.4774 5 41.0664C5 41.6553 5.44309 42.1327 5.98966 42.1327Z" fill="#303030"/>
<path d="M5.99139 41.4891C6.20885 41.4891 6.38513 41.2992 6.38513 41.0649C6.38513 40.8306 6.20885 40.6406 5.99139 40.6406C5.77394 40.6406 5.59766 40.8306 5.59766 41.0649C5.59766 41.2992 5.77394 41.4891 5.99139 41.4891Z" fill="#B8B8B8"/>
<path d="M22.7152 8.61719H21.832H16.8836H16.6602C16.7134 9.45422 16.7666 10.6008 16.7772 11.6328C16.7879 11.6901 16.7985 11.7589 16.8091 11.7819C16.8411 11.8736 16.873 11.9768 16.8836 12.08V32.3064C16.8517 32.6275 16.8198 32.9371 16.7772 33.2581C16.7666 33.3842 16.7453 33.5104 16.7346 33.6365C16.724 33.8085 16.724 33.9805 16.7134 34.1525C16.7772 34.4277 16.8304 34.7029 16.873 34.978C16.873 35.0124 16.8836 35.0468 16.8836 35.0698V38.9224H17.022H21.832H22.7152C24.0773 38.9224 25.2053 37.7185 25.2053 36.2393V11.3003C25.2053 9.82114 24.088 8.61719 22.7152 8.61719Z" fill="#858585"/>
<path d="M18.1191 38.9342H3.95519C3.22093 38.9342 2.625 38.292 2.625 37.5009V10.0622C2.625 9.27102 3.22093 8.62891 3.95519 8.62891H18.1297C18.864 8.62891 19.4599 9.27102 19.4599 10.0622V37.5009C19.4599 38.292 18.8534 38.9342 18.1191 38.9342Z" fill="#B8B8B8"/>
<path d="M22.5974 37.2021H21.8632C21.629 37.2021 21.4375 36.9957 21.4375 36.7434V10.8297C21.4375 10.5775 21.629 10.3711 21.8632 10.3711H22.5974C22.8315 10.3711 23.0231 10.5775 23.0231 10.8297V36.7434C23.0231 36.9957 22.8315 37.2021 22.5974 37.2021Z" fill="#B8B8B8"/>
<path d="M17.779 9.90234C17.3214 10.2578 16.9596 10.7508 16.6723 11.2668C16.3956 11.7943 16.1934 12.3676 16.087 12.9524L16.0445 13.1702L16.0232 13.2849L16.0125 13.3995C16.0019 13.5486 15.9806 13.6977 15.97 13.8467C15.9593 14.1448 15.9487 14.443 15.9593 14.7526L15.97 16.5757C15.9912 19.0065 15.9806 21.4374 15.9912 23.8797C15.9806 26.3105 15.9806 28.7414 15.97 31.1837L15.9593 33.0068C15.9487 33.6145 16.0125 34.2107 16.1189 34.807C16.3211 35.988 16.7468 37.1576 17.4704 38.0978C17.0873 37.6506 16.7787 37.1232 16.5446 36.5728C16.3105 36.0224 16.1296 35.4262 16.0125 34.8299C15.8955 34.2337 15.821 33.626 15.821 33.0068L15.8103 31.1837C15.7891 28.7528 15.7891 26.322 15.7891 23.8797C15.7997 21.4488 15.7997 19.018 15.8103 16.5757L15.821 14.7526C15.821 14.4544 15.8316 14.1448 15.8529 13.8353C15.8848 13.5257 15.9168 13.2275 15.9912 12.9294C16.1189 12.3332 16.3318 11.7599 16.6297 11.2324C16.9383 10.7164 17.3108 10.2463 17.779 9.90234Z" fill="#858585"/>
<path d="M15.404 9.76172C14.9464 10.1172 14.5846 10.6102 14.2973 11.1262C14.0206 11.6536 13.8184 12.227 13.712 12.8117L13.6695 13.0296L13.6482 13.1443L13.6375 13.2589C13.6269 13.408 13.6056 13.557 13.595 13.7061C13.5843 14.0042 13.5737 14.3023 13.5843 14.6119L13.595 16.4351C13.6163 18.8659 13.6056 21.2967 13.6163 23.7391C13.6056 26.1699 13.6056 28.6007 13.595 31.043L13.5843 32.8662C13.5737 33.4739 13.6375 34.0701 13.744 34.6664C13.9461 35.8474 14.3718 37.0169 15.0954 37.9572C14.7123 37.51 14.4037 36.9825 14.1696 36.4322C13.9355 35.8818 13.7546 35.2855 13.6375 34.6893C13.5205 34.0931 13.446 33.4853 13.446 32.8662L13.4353 31.043C13.4141 28.6122 13.4141 26.1814 13.4141 23.7391C13.4247 21.3082 13.4247 18.8774 13.4353 16.4351L13.446 14.6119C13.446 14.3138 13.4566 14.0042 13.4779 13.6946C13.5098 13.385 13.5418 13.0869 13.6163 12.7888C13.744 12.1926 13.9568 11.6192 14.2547 11.0918C14.5527 10.5758 14.9358 10.0942 15.404 9.76172Z" fill="#858585"/>
<path d="M13.2243 9.96875C12.7668 10.3242 12.405 10.8173 12.1176 11.3332C11.8409 11.8607 11.6388 12.434 11.5323 13.0188L11.4898 13.2366L11.4685 13.3513L11.4579 13.4659C11.4472 13.615 11.4259 13.7641 11.4153 13.9131C11.4046 14.2113 11.394 14.5094 11.4046 14.819L11.4153 16.6421C11.4366 19.0729 11.4259 21.5038 11.4366 23.9461C11.4259 26.3769 11.4259 28.8078 11.4153 31.2501L11.4046 33.0732C11.394 33.6809 11.4579 34.2772 11.5643 34.8734C11.7665 36.0544 12.1921 37.224 12.9157 38.1642C12.5326 37.717 12.224 37.1896 11.9899 36.6392C11.7558 36.0888 11.5749 35.4926 11.4579 34.8963C11.3408 34.3001 11.2663 33.6924 11.2663 33.0732L11.2557 31.2501C11.2344 28.8192 11.2344 26.3884 11.2344 23.9461C11.245 21.5152 11.245 19.0844 11.2557 16.6421L11.2663 14.819C11.2663 14.5208 11.2769 14.2113 11.2982 13.9017C11.3302 13.5921 11.3621 13.294 11.4366 12.9958C11.5643 12.3996 11.7771 11.8263 12.0751 11.2988C12.373 10.7829 12.7561 10.3127 13.2243 9.96875Z" fill="#858585"/>
<path d="M11.0408 9.96875C10.5832 10.3242 10.2214 10.8173 9.93404 11.3332C9.65735 11.8607 9.45517 12.434 9.34875 13.0188L9.30618 13.2366L9.2849 13.3513L9.27426 13.4659C9.26362 13.615 9.24233 13.7641 9.23169 13.9131C9.22105 14.2113 9.21041 14.5094 9.22105 14.819L9.23169 16.6421C9.25297 19.0729 9.24233 21.5038 9.25297 23.9461C9.24233 26.3769 9.24233 28.8078 9.23169 31.2501L9.22105 33.0732C9.21041 33.6809 9.27426 34.2772 9.38067 34.8734C9.58286 36.0544 10.0085 37.224 10.7322 38.1642C10.3491 37.717 10.0404 37.1896 9.80634 36.6392C9.57222 36.0888 9.39131 35.4926 9.27426 34.8963C9.1572 34.3001 9.08271 33.6924 9.08271 33.0732L9.07207 31.2501C9.05078 28.8192 9.05078 26.3884 9.05078 23.9461C9.06142 21.5152 9.06142 19.0844 9.07207 16.6421L9.08271 14.819C9.08271 14.5208 9.09335 14.2113 9.11463 13.9017C9.14656 13.5921 9.17848 13.294 9.25297 12.9958C9.38067 12.3996 9.5935 11.8263 9.89147 11.2988C10.2001 10.7829 10.5725 10.3127 11.0408 9.96875Z" fill="#858585"/>
<path d="M8.66966 9.96875C8.21207 10.3242 7.85026 10.8173 7.56293 11.3332C7.28625 11.8607 7.08406 12.434 6.97765 13.0188L6.93509 13.2366L6.9138 13.3513L6.90316 13.4659C6.89252 13.615 6.87124 13.7641 6.8606 13.9131C6.84995 14.2113 6.83931 14.5094 6.84996 14.819L6.8606 16.6421C6.88188 19.0729 6.87124 21.5038 6.88188 23.9461C6.87124 26.3769 6.87124 28.8078 6.8606 31.2501L6.84996 33.0732C6.83931 33.6809 6.90316 34.2772 7.00958 34.8734C7.21177 36.0544 7.63743 37.224 8.36105 38.1642C7.97795 37.717 7.66936 37.1896 7.43524 36.6392C7.20113 36.0888 7.02022 35.4926 6.90316 34.8963C6.78611 34.3001 6.71161 33.6924 6.71161 33.0732L6.70097 31.2501C6.67969 28.8192 6.67969 26.3884 6.67969 23.9461C6.69033 21.5152 6.69033 19.0844 6.70097 16.6421L6.71161 14.819C6.71161 14.5208 6.72226 14.2113 6.74354 13.9017C6.77547 13.5921 6.80739 13.294 6.88188 12.9958C7.00958 12.3996 7.22241 11.8263 7.52037 11.2988C7.81834 10.7829 8.20143 10.3127 8.66966 9.96875Z" fill="#858585"/>
<path d="M6.28684 9.96875C5.82925 10.3242 5.46744 10.8173 5.18012 11.3332C4.90344 11.8607 4.70125 12.434 4.59484 13.0188L4.55227 13.2366L4.53098 13.3513L4.52034 13.4659C4.5097 13.615 4.48842 13.7641 4.47778 13.9131C4.46713 14.2113 4.4565 14.5094 4.46714 14.819L4.47778 16.6421C4.49906 19.0729 4.48842 21.5038 4.49906 23.9461C4.48842 26.3769 4.48842 28.8078 4.47778 31.2501L4.46714 33.0732C4.4565 33.6809 4.52034 34.2772 4.62676 34.8734C4.82895 36.0544 5.25461 37.224 5.97824 38.1642C5.59514 37.717 5.28654 37.1896 5.05242 36.6392C4.81831 36.0888 4.6374 35.4926 4.52034 34.8963C4.40329 34.3001 4.3288 33.6924 4.3288 33.0732L4.31815 31.2501C4.29687 28.8192 4.29688 26.3884 4.29688 23.9461C4.30752 21.5152 4.30751 19.0844 4.31815 16.6421L4.3288 14.819C4.3288 14.5208 4.33944 14.2113 4.36072 13.9017C4.39265 13.5921 4.42457 13.294 4.49906 12.9958C4.62676 12.3996 4.83959 11.8263 5.13755 11.2988C5.44616 10.7829 5.81861 10.3127 6.28684 9.96875Z" fill="#858585"/>
<path d="M12.0198 2.18359H11.3281V8.62761H12.0198V2.18359Z" fill="#B8B8B8"/>
<path d="M19.6097 2.19531H18.918V8.63933H19.6097V2.19531Z" fill="#B8B8B8"/>
<path d="M12.128 2H11.9258V8.61601H12.128V2Z" fill="#858585"/>
<path d="M19.6631 2H19.4609V8.61601H19.6631V2Z" fill="#858585"/>
<path d="M11.3304 2.1843V0.957411C11.3304 0.957411 11.2347 -0.0860177 12.2775 0.00571214H18.7263C18.7263 0.00571214 19.6734 -0.0401492 19.6628 1.09501V2.20723L11.3304 2.1843Z" fill="#303030"/>
</svg>
